<mxfile host="app.diagrams.net" modified="2024-06-18T16:03:51.982Z" agent="Mozilla/5.0 (X11; Linux x86_64) AppleWebKit/537.36 (KHTML, like Gecko) Chrome/125.0.0.0 Safari/537.36" etag="JEK4mgP9sgSg2E89Tfyx" version="24.5.4" type="device">
  <diagram id="C5RBs43oDa-KdzZeNtuy" name="Page-1">
    <mxGraphModel dx="2480" dy="6342" grid="1" gridSize="10" guides="1" tooltips="1" connect="1" arrows="1" fold="1" page="1" pageScale="1" pageWidth="2336" pageHeight="1654" math="0" shadow="0">
      <root>
        <mxCell id="WIyWlLk6GJQsqaUBKTNV-0" />
        <mxCell id="WIyWlLk6GJQsqaUBKTNV-1" parent="WIyWlLk6GJQsqaUBKTNV-0" />
        <mxCell id="zkfFHV4jXpPFQw0GAbJ--0" value="WEBServer" style="swimlane;fontStyle=2;align=center;verticalAlign=top;childLayout=stackLayout;horizontal=1;startSize=26;horizontalStack=0;resizeParent=1;resizeLast=0;collapsible=1;marginBottom=0;rounded=0;shadow=0;strokeWidth=1;" parent="WIyWlLk6GJQsqaUBKTNV-1" vertex="1">
          <mxGeometry x="40" y="-4840" width="410" height="670" as="geometry">
            <mxRectangle x="230" y="140" width="160" height="26" as="alternateBounds" />
          </mxGeometry>
        </mxCell>
        <mxCell id="zkfFHV4jXpPFQw0GAbJ--1" value="std::ifstream     configFile;" style="text;align=left;verticalAlign=top;spacingLeft=4;spacingRight=4;overflow=hidden;rotatable=0;points=[[0,0.5],[1,0.5]];portConstraint=eastwest;" parent="zkfFHV4jXpPFQw0GAbJ--0" vertex="1">
          <mxGeometry y="26" width="410" height="26" as="geometry" />
        </mxCell>
        <mxCell id="zkfFHV4jXpPFQw0GAbJ--2" value="        std::string         configFilename;" style="text;align=left;verticalAlign=top;spacingLeft=4;spacingRight=4;overflow=hidden;rotatable=0;points=[[0,0.5],[1,0.5]];portConstraint=eastwest;rounded=0;shadow=0;html=0;" parent="zkfFHV4jXpPFQw0GAbJ--0" vertex="1">
          <mxGeometry y="52" width="410" height="28" as="geometry" />
        </mxCell>
        <mxCell id="zkfFHV4jXpPFQw0GAbJ--3" value="        std::map&lt;int, ListeningSocket *&gt;    serverSocket;" style="text;align=left;verticalAlign=top;spacingLeft=4;spacingRight=4;overflow=hidden;rotatable=0;points=[[0,0.5],[1,0.5]];portConstraint=eastwest;rounded=0;shadow=0;html=0;fillColor=#fff2cc;strokeColor=#d6b656;" parent="zkfFHV4jXpPFQw0GAbJ--0" vertex="1">
          <mxGeometry y="80" width="410" height="26" as="geometry" />
        </mxCell>
        <mxCell id="ML2xo1FJerdkUP84CqIJ-1" value="std::map&lt;int, ListeningSocket *&gt; acceptedSocket;" style="text;align=left;verticalAlign=top;spacingLeft=4;spacingRight=4;overflow=hidden;rotatable=0;points=[[0,0.5],[1,0.5]];portConstraint=eastwest;rounded=0;shadow=0;html=0;fillColor=#fff2cc;strokeColor=#d6b656;" parent="zkfFHV4jXpPFQw0GAbJ--0" vertex="1">
          <mxGeometry y="106" width="410" height="26" as="geometry" />
        </mxCell>
        <mxCell id="ML2xo1FJerdkUP84CqIJ-2" value="        std::vector&lt;Server *&gt;   servers;" style="text;align=left;verticalAlign=top;spacingLeft=4;spacingRight=4;overflow=hidden;rotatable=0;points=[[0,0.5],[1,0.5]];portConstraint=eastwest;rounded=0;shadow=0;html=0;fillColor=#dae8fc;strokeColor=#6c8ebf;" parent="zkfFHV4jXpPFQw0GAbJ--0" vertex="1">
          <mxGeometry y="132" width="410" height="26" as="geometry" />
        </mxCell>
        <mxCell id="ML2xo1FJerdkUP84CqIJ-3" value="        std::map&lt;std::string, std::string&gt;  mimeTypes;" style="text;align=left;verticalAlign=top;spacingLeft=4;spacingRight=4;overflow=hidden;rotatable=0;points=[[0,0.5],[1,0.5]];portConstraint=eastwest;rounded=0;shadow=0;html=0;" parent="zkfFHV4jXpPFQw0GAbJ--0" vertex="1">
          <mxGeometry y="158" width="410" height="26" as="geometry" />
        </mxCell>
        <mxCell id="ML2xo1FJerdkUP84CqIJ-4" value="        std::map&lt;int, std::string&gt;  errorPages;" style="text;align=left;verticalAlign=top;spacingLeft=4;spacingRight=4;overflow=hidden;rotatable=0;points=[[0,0.5],[1,0.5]];portConstraint=eastwest;rounded=0;shadow=0;html=0;" parent="zkfFHV4jXpPFQw0GAbJ--0" vertex="1">
          <mxGeometry y="184" width="410" height="26" as="geometry" />
        </mxCell>
        <mxCell id="zkfFHV4jXpPFQw0GAbJ--4" value="" style="line;html=1;strokeWidth=1;align=left;verticalAlign=middle;spacingTop=-1;spacingLeft=3;spacingRight=3;rotatable=0;labelPosition=right;points=[];portConstraint=eastwest;" parent="zkfFHV4jXpPFQw0GAbJ--0" vertex="1">
          <mxGeometry y="210" width="410" height="8" as="geometry" />
        </mxCell>
        <mxCell id="lbcptkGWw-PFIqOmlA4B-38" value="Constructors" style="text;align=left;verticalAlign=top;spacingLeft=4;spacingRight=4;overflow=hidden;rotatable=0;points=[[0,0.5],[1,0.5]];portConstraint=eastwest;fontStyle=5" parent="zkfFHV4jXpPFQw0GAbJ--0" vertex="1">
          <mxGeometry y="218" width="410" height="26" as="geometry" />
        </mxCell>
        <mxCell id="lbcptkGWw-PFIqOmlA4B-5" value="WebServer();&#xa;~WebServer();&#xa;WebServer(WebServer const &amp;copy);&#xa;WebServer &amp;operator=(WebServer const &amp;copy);&#xa;void WebServer::processConfigFile()" style="text;align=left;verticalAlign=top;spacingLeft=4;spacingRight=4;overflow=hidden;rotatable=0;points=[[0,0.5],[1,0.5]];portConstraint=eastwest;" parent="zkfFHV4jXpPFQw0GAbJ--0" vertex="1">
          <mxGeometry y="244" width="410" height="86" as="geometry" />
        </mxCell>
        <mxCell id="lbcptkGWw-PFIqOmlA4B-21" value="" style="line;html=1;strokeWidth=1;align=left;verticalAlign=middle;spacingTop=-1;spacingLeft=3;spacingRight=3;rotatable=0;labelPosition=right;points=[];portConstraint=eastwest;" parent="zkfFHV4jXpPFQw0GAbJ--0" vertex="1">
          <mxGeometry y="330" width="410" height="8" as="geometry" />
        </mxCell>
        <mxCell id="lbcptkGWw-PFIqOmlA4B-41" value="Setters/Getters" style="text;align=left;verticalAlign=top;spacingLeft=4;spacingRight=4;overflow=hidden;rotatable=0;points=[[0,0.5],[1,0.5]];portConstraint=eastwest;fontStyle=5" parent="zkfFHV4jXpPFQw0GAbJ--0" vertex="1">
          <mxGeometry y="338" width="410" height="26" as="geometry" />
        </mxCell>
        <mxCell id="lbcptkGWw-PFIqOmlA4B-16" value="void    loadConfigFile(std::string configFile);" style="text;align=left;verticalAlign=top;spacingLeft=4;spacingRight=4;overflow=hidden;rotatable=0;points=[[0,0.5],[1,0.5]];portConstraint=eastwest;" parent="zkfFHV4jXpPFQw0GAbJ--0" vertex="1">
          <mxGeometry y="364" width="410" height="26" as="geometry" />
        </mxCell>
        <mxCell id="lbcptkGWw-PFIqOmlA4B-22" value="" style="line;html=1;strokeWidth=1;align=left;verticalAlign=middle;spacingTop=-1;spacingLeft=3;spacingRight=3;rotatable=0;labelPosition=right;points=[];portConstraint=eastwest;" parent="zkfFHV4jXpPFQw0GAbJ--0" vertex="1">
          <mxGeometry y="390" width="410" height="8" as="geometry" />
        </mxCell>
        <mxCell id="lbcptkGWw-PFIqOmlA4B-39" value="Event handlers" style="text;align=left;verticalAlign=top;spacingLeft=4;spacingRight=4;overflow=hidden;rotatable=0;points=[[0,0.5],[1,0.5]];portConstraint=eastwest;fontStyle=5" parent="zkfFHV4jXpPFQw0GAbJ--0" vertex="1">
          <mxGeometry y="398" width="410" height="26" as="geometry" />
        </mxCell>
        <mxCell id="lbcptkGWw-PFIqOmlA4B-14" value="void    eventLoop();" style="text;align=left;verticalAlign=top;spacingLeft=4;spacingRight=4;overflow=hidden;rotatable=0;points=[[0,0.5],[1,0.5]];portConstraint=eastwest;" parent="zkfFHV4jXpPFQw0GAbJ--0" vertex="1">
          <mxGeometry y="424" width="410" height="26" as="geometry" />
        </mxCell>
        <mxCell id="lbcptkGWw-PFIqOmlA4B-11" value="struct sockaddr_in convertHost(std::string hostname, int port);" style="text;align=left;verticalAlign=top;spacingLeft=4;spacingRight=4;overflow=hidden;rotatable=0;points=[[0,0.5],[1,0.5]];portConstraint=eastwest;" parent="zkfFHV4jXpPFQw0GAbJ--0" vertex="1">
          <mxGeometry y="450" width="410" height="26" as="geometry" />
        </mxCell>
        <mxCell id="lbcptkGWw-PFIqOmlA4B-12" value="void removeEventFd(int fd, int type);" style="text;align=left;verticalAlign=top;spacingLeft=4;spacingRight=4;overflow=hidden;rotatable=0;points=[[0,0.5],[1,0.5]];portConstraint=eastwest;" parent="zkfFHV4jXpPFQw0GAbJ--0" vertex="1">
          <mxGeometry y="476" width="410" height="26" as="geometry" />
        </mxCell>
        <mxCell id="lbcptkGWw-PFIqOmlA4B-13" value="void addEvent(int fd, int type);" style="text;align=left;verticalAlign=top;spacingLeft=4;spacingRight=4;overflow=hidden;rotatable=0;points=[[0,0.5],[1,0.5]];portConstraint=eastwest;" parent="zkfFHV4jXpPFQw0GAbJ--0" vertex="1">
          <mxGeometry y="502" width="410" height="26" as="geometry" />
        </mxCell>
        <mxCell id="lbcptkGWw-PFIqOmlA4B-10" value="void addEventSet();" style="text;align=left;verticalAlign=top;spacingLeft=4;spacingRight=4;overflow=hidden;rotatable=0;points=[[0,0.5],[1,0.5]];portConstraint=eastwest;" parent="zkfFHV4jXpPFQw0GAbJ--0" vertex="1">
          <mxGeometry y="528" width="410" height="26" as="geometry" />
        </mxCell>
        <mxCell id="lbcptkGWw-PFIqOmlA4B-9" value="void createQueue ();" style="text;align=left;verticalAlign=top;spacingLeft=4;spacingRight=4;overflow=hidden;rotatable=0;points=[[0,0.5],[1,0.5]];portConstraint=eastwest;" parent="zkfFHV4jXpPFQw0GAbJ--0" vertex="1">
          <mxGeometry y="554" width="410" height="26" as="geometry" />
        </mxCell>
        <mxCell id="lbcptkGWw-PFIqOmlA4B-8" value="int acceptNewEvent(int curfd);" style="text;align=left;verticalAlign=top;spacingLeft=4;spacingRight=4;overflow=hidden;rotatable=0;points=[[0,0.5],[1,0.5]];portConstraint=eastwest;" parent="zkfFHV4jXpPFQw0GAbJ--0" vertex="1">
          <mxGeometry y="580" width="410" height="26" as="geometry" />
        </mxCell>
        <mxCell id="lbcptkGWw-PFIqOmlA4B-7" value="int waitEvent(struct kevent *evList);" style="text;align=left;verticalAlign=top;spacingLeft=4;spacingRight=4;overflow=hidden;rotatable=0;points=[[0,0.5],[1,0.5]];portConstraint=eastwest;" parent="zkfFHV4jXpPFQw0GAbJ--0" vertex="1">
          <mxGeometry y="606" width="410" height="26" as="geometry" />
        </mxCell>
        <mxCell id="lbcptkGWw-PFIqOmlA4B-2" value="void modifEvent(struct kevent eventList, int typeRem, int typeAdd);" style="text;align=left;verticalAlign=top;spacingLeft=4;spacingRight=4;overflow=hidden;rotatable=0;points=[[0,0.5],[1,0.5]];portConstraint=eastwest;" parent="zkfFHV4jXpPFQw0GAbJ--0" vertex="1">
          <mxGeometry y="632" width="410" height="26" as="geometry" />
        </mxCell>
        <mxCell id="zkfFHV4jXpPFQw0GAbJ--6" value="FileContent" style="swimlane;fontStyle=0;align=center;verticalAlign=top;childLayout=stackLayout;horizontal=1;startSize=26;horizontalStack=0;resizeParent=1;resizeLast=0;collapsible=1;marginBottom=0;rounded=0;shadow=0;strokeWidth=1;fillColor=#d5e8d4;strokeColor=#82b366;" parent="WIyWlLk6GJQsqaUBKTNV-1" vertex="1">
          <mxGeometry x="2020" y="-4860" width="250" height="680" as="geometry">
            <mxRectangle x="130" y="380" width="160" height="26" as="alternateBounds" />
          </mxGeometry>
        </mxCell>
        <mxCell id="zkfFHV4jXpPFQw0GAbJ--7" value="std::string fileName;" style="text;align=left;verticalAlign=top;spacingLeft=4;spacingRight=4;overflow=hidden;rotatable=0;points=[[0,0.5],[1,0.5]];portConstraint=eastwest;" parent="zkfFHV4jXpPFQw0GAbJ--6" vertex="1">
          <mxGeometry y="26" width="250" height="24" as="geometry" />
        </mxCell>
        <mxCell id="ML2xo1FJerdkUP84CqIJ-68" value="std::vector &lt;std::string&gt; args;" style="text;align=left;verticalAlign=top;spacingLeft=4;spacingRight=4;overflow=hidden;rotatable=0;points=[[0,0.5],[1,0.5]];portConstraint=eastwest;rounded=0;shadow=0;html=0;" parent="zkfFHV4jXpPFQw0GAbJ--6" vertex="1">
          <mxGeometry y="50" width="250" height="26" as="geometry" />
        </mxCell>
        <mxCell id="ML2xo1FJerdkUP84CqIJ-76" value="std::string content;" style="text;align=left;verticalAlign=top;spacingLeft=4;spacingRight=4;overflow=hidden;rotatable=0;points=[[0,0.5],[1,0.5]];portConstraint=eastwest;rounded=0;shadow=0;html=0;" parent="zkfFHV4jXpPFQw0GAbJ--6" vertex="1">
          <mxGeometry y="76" width="250" height="26" as="geometry" />
        </mxCell>
        <mxCell id="ML2xo1FJerdkUP84CqIJ-75" value="std::ifstream file;" style="text;align=left;verticalAlign=top;spacingLeft=4;spacingRight=4;overflow=hidden;rotatable=0;points=[[0,0.5],[1,0.5]];portConstraint=eastwest;rounded=0;shadow=0;html=0;" parent="zkfFHV4jXpPFQw0GAbJ--6" vertex="1">
          <mxGeometry y="102" width="250" height="26" as="geometry" />
        </mxCell>
        <mxCell id="ML2xo1FJerdkUP84CqIJ-74" value="bool isFistFragment;" style="text;align=left;verticalAlign=top;spacingLeft=4;spacingRight=4;overflow=hidden;rotatable=0;points=[[0,0.5],[1,0.5]];portConstraint=eastwest;rounded=0;shadow=0;html=0;" parent="zkfFHV4jXpPFQw0GAbJ--6" vertex="1">
          <mxGeometry y="128" width="250" height="26" as="geometry" />
        </mxCell>
        <mxCell id="ML2xo1FJerdkUP84CqIJ-73" value="bool isFileOpen;" style="text;align=left;verticalAlign=top;spacingLeft=4;spacingRight=4;overflow=hidden;rotatable=0;points=[[0,0.5],[1,0.5]];portConstraint=eastwest;rounded=0;shadow=0;html=0;" parent="zkfFHV4jXpPFQw0GAbJ--6" vertex="1">
          <mxGeometry y="154" width="250" height="26" as="geometry" />
        </mxCell>
        <mxCell id="ML2xo1FJerdkUP84CqIJ-72" value="bool sendComplete;" style="text;align=left;verticalAlign=top;spacingLeft=4;spacingRight=4;overflow=hidden;rotatable=0;points=[[0,0.5],[1,0.5]];portConstraint=eastwest;rounded=0;shadow=0;html=0;" parent="zkfFHV4jXpPFQw0GAbJ--6" vertex="1">
          <mxGeometry y="180" width="250" height="26" as="geometry" />
        </mxCell>
        <mxCell id="ML2xo1FJerdkUP84CqIJ-71" value="bool isCGI;" style="text;align=left;verticalAlign=top;spacingLeft=4;spacingRight=4;overflow=hidden;rotatable=0;points=[[0,0.5],[1,0.5]];portConstraint=eastwest;rounded=0;shadow=0;html=0;" parent="zkfFHV4jXpPFQw0GAbJ--6" vertex="1">
          <mxGeometry y="206" width="250" height="26" as="geometry" />
        </mxCell>
        <mxCell id="ML2xo1FJerdkUP84CqIJ-88" value="std::string CGIFolder;" style="text;align=left;verticalAlign=top;spacingLeft=4;spacingRight=4;overflow=hidden;rotatable=0;points=[[0,0.5],[1,0.5]];portConstraint=eastwest;rounded=0;shadow=0;html=0;" parent="zkfFHV4jXpPFQw0GAbJ--6" vertex="1">
          <mxGeometry y="232" width="250" height="26" as="geometry" />
        </mxCell>
        <mxCell id="ML2xo1FJerdkUP84CqIJ-70" value="struct stat fileStat;" style="text;align=left;verticalAlign=top;spacingLeft=4;spacingRight=4;overflow=hidden;rotatable=0;points=[[0,0.5],[1,0.5]];portConstraint=eastwest;rounded=0;shadow=0;html=0;" parent="zkfFHV4jXpPFQw0GAbJ--6" vertex="1">
          <mxGeometry y="258" width="250" height="26" as="geometry" />
        </mxCell>
        <mxCell id="ML2xo1FJerdkUP84CqIJ-69" value="CGI *cgiModule;" style="text;align=left;verticalAlign=top;spacingLeft=4;spacingRight=4;overflow=hidden;rotatable=0;points=[[0,0.5],[1,0.5]];portConstraint=eastwest;rounded=0;shadow=0;html=0;fillColor=#60a917;fontColor=#ffffff;strokeColor=#2D7600;" parent="zkfFHV4jXpPFQw0GAbJ--6" vertex="1">
          <mxGeometry y="284" width="250" height="26" as="geometry" />
        </mxCell>
        <mxCell id="zkfFHV4jXpPFQw0GAbJ--9" value="" style="line;html=1;strokeWidth=1;align=left;verticalAlign=middle;spacingTop=-1;spacingLeft=3;spacingRight=3;rotatable=0;labelPosition=right;points=[];portConstraint=eastwest;" parent="zkfFHV4jXpPFQw0GAbJ--6" vertex="1">
          <mxGeometry y="310" width="250" height="8" as="geometry" />
        </mxCell>
        <mxCell id="lbcptkGWw-PFIqOmlA4B-86" value="Constructors" style="text;align=left;verticalAlign=top;spacingLeft=4;spacingRight=4;overflow=hidden;rotatable=0;points=[[0,0.5],[1,0.5]];portConstraint=eastwest;fontStyle=5" parent="zkfFHV4jXpPFQw0GAbJ--6" vertex="1">
          <mxGeometry y="318" width="250" height="26" as="geometry" />
        </mxCell>
        <mxCell id="zkfFHV4jXpPFQw0GAbJ--10" value="FileContent();&#xa;FileContent(const std::string &amp;);&#xa;~FileContent();" style="text;align=left;verticalAlign=top;spacingLeft=4;spacingRight=4;overflow=hidden;rotatable=0;points=[[0,0.5],[1,0.5]];portConstraint=eastwest;fontStyle=0" parent="zkfFHV4jXpPFQw0GAbJ--6" vertex="1">
          <mxGeometry y="344" width="250" height="56" as="geometry" />
        </mxCell>
        <mxCell id="lbcptkGWw-PFIqOmlA4B-92" value="" style="line;html=1;strokeWidth=1;align=left;verticalAlign=middle;spacingTop=-1;spacingLeft=3;spacingRight=3;rotatable=0;labelPosition=right;points=[];portConstraint=eastwest;" parent="zkfFHV4jXpPFQw0GAbJ--6" vertex="1">
          <mxGeometry y="400" width="250" height="8" as="geometry" />
        </mxCell>
        <mxCell id="lbcptkGWw-PFIqOmlA4B-93" value="Setters/Getters" style="text;align=left;verticalAlign=top;spacingLeft=4;spacingRight=4;overflow=hidden;rotatable=0;points=[[0,0.5],[1,0.5]];portConstraint=eastwest;fontStyle=5" parent="zkfFHV4jXpPFQw0GAbJ--6" vertex="1">
          <mxGeometry y="408" width="250" height="26" as="geometry" />
        </mxCell>
        <mxCell id="lbcptkGWw-PFIqOmlA4B-88" value="bool setFileName(const std::string &amp;);&#xa;void setFirstFragment(bool);&#xa;void setCGIFile(bool);&#xa;void setCGIFolder(const std::string &amp;);&#xa;std::string getFileName();&#xa;std::string getContent();&#xa;bool getFirstFragment();&#xa;std::string getLastModified();&#xa;size_t getContentSize();&#xa;std::string getCGIFolder();" style="text;align=left;verticalAlign=top;spacingLeft=4;spacingRight=4;overflow=hidden;rotatable=0;points=[[0,0.5],[1,0.5]];portConstraint=eastwest;" parent="zkfFHV4jXpPFQw0GAbJ--6" vertex="1">
          <mxGeometry y="434" width="250" height="156" as="geometry" />
        </mxCell>
        <mxCell id="lbcptkGWw-PFIqOmlA4B-94" value="" style="line;html=1;strokeWidth=1;align=left;verticalAlign=middle;spacingTop=-1;spacingLeft=3;spacingRight=3;rotatable=0;labelPosition=right;points=[];portConstraint=eastwest;" parent="zkfFHV4jXpPFQw0GAbJ--6" vertex="1">
          <mxGeometry y="590" width="250" height="8" as="geometry" />
        </mxCell>
        <mxCell id="lbcptkGWw-PFIqOmlA4B-95" value="Diverse" style="text;align=left;verticalAlign=top;spacingLeft=4;spacingRight=4;overflow=hidden;rotatable=0;points=[[0,0.5],[1,0.5]];portConstraint=eastwest;fontStyle=5" parent="zkfFHV4jXpPFQw0GAbJ--6" vertex="1">
          <mxGeometry y="598" width="250" height="26" as="geometry" />
        </mxCell>
        <mxCell id="lbcptkGWw-PFIqOmlA4B-91" value="int openFile();&#xa;bool isSendComplete();&#xa;bool isCGIFile();" style="text;align=left;verticalAlign=top;spacingLeft=4;spacingRight=4;overflow=hidden;rotatable=0;points=[[0,0.5],[1,0.5]];portConstraint=eastwest;" parent="zkfFHV4jXpPFQw0GAbJ--6" vertex="1">
          <mxGeometry y="624" width="250" height="56" as="geometry" />
        </mxCell>
        <mxCell id="zkfFHV4jXpPFQw0GAbJ--13" value="Header" style="swimlane;fontStyle=0;align=center;verticalAlign=top;childLayout=stackLayout;horizontal=1;startSize=26;horizontalStack=0;resizeParent=1;resizeLast=0;collapsible=1;marginBottom=0;rounded=0;shadow=0;strokeWidth=1;fillColor=#e1d5e7;strokeColor=#9673a6;" parent="WIyWlLk6GJQsqaUBKTNV-1" vertex="1">
          <mxGeometry x="1410" y="-4860" width="280" height="520" as="geometry">
            <mxRectangle x="340" y="380" width="170" height="26" as="alternateBounds" />
          </mxGeometry>
        </mxCell>
        <mxCell id="zkfFHV4jXpPFQw0GAbJ--14" value="        std::string Version;" style="text;align=left;verticalAlign=top;spacingLeft=4;spacingRight=4;overflow=hidden;rotatable=0;points=[[0,0.5],[1,0.5]];portConstraint=eastwest;" parent="zkfFHV4jXpPFQw0GAbJ--13" vertex="1">
          <mxGeometry y="26" width="280" height="24" as="geometry" />
        </mxCell>
        <mxCell id="ML2xo1FJerdkUP84CqIJ-53" value="std::string Status;" style="text;align=left;verticalAlign=top;spacingLeft=4;spacingRight=4;overflow=hidden;rotatable=0;points=[[0,0.5],[1,0.5]];portConstraint=eastwest;" parent="zkfFHV4jXpPFQw0GAbJ--13" vertex="1">
          <mxGeometry y="50" width="280" height="26" as="geometry" />
        </mxCell>
        <mxCell id="ML2xo1FJerdkUP84CqIJ-52" value="std::string Server;" style="text;align=left;verticalAlign=top;spacingLeft=4;spacingRight=4;overflow=hidden;rotatable=0;points=[[0,0.5],[1,0.5]];portConstraint=eastwest;" parent="zkfFHV4jXpPFQw0GAbJ--13" vertex="1">
          <mxGeometry y="76" width="280" height="26" as="geometry" />
        </mxCell>
        <mxCell id="ML2xo1FJerdkUP84CqIJ-51" value="std::string Date;" style="text;align=left;verticalAlign=top;spacingLeft=4;spacingRight=4;overflow=hidden;rotatable=0;points=[[0,0.5],[1,0.5]];portConstraint=eastwest;" parent="zkfFHV4jXpPFQw0GAbJ--13" vertex="1">
          <mxGeometry y="102" width="280" height="26" as="geometry" />
        </mxCell>
        <mxCell id="ML2xo1FJerdkUP84CqIJ-50" value="std::string LastModified;" style="text;align=left;verticalAlign=top;spacingLeft=4;spacingRight=4;overflow=hidden;rotatable=0;points=[[0,0.5],[1,0.5]];portConstraint=eastwest;" parent="zkfFHV4jXpPFQw0GAbJ--13" vertex="1">
          <mxGeometry y="128" width="280" height="32" as="geometry" />
        </mxCell>
        <mxCell id="ML2xo1FJerdkUP84CqIJ-49" value="size_t ContentLength;" style="text;align=left;verticalAlign=top;spacingLeft=4;spacingRight=4;overflow=hidden;rotatable=0;points=[[0,0.5],[1,0.5]];portConstraint=eastwest;" parent="zkfFHV4jXpPFQw0GAbJ--13" vertex="1">
          <mxGeometry y="160" width="280" height="26" as="geometry" />
        </mxCell>
        <mxCell id="ML2xo1FJerdkUP84CqIJ-55" value="std::string ContentType;" style="text;align=left;verticalAlign=top;spacingLeft=4;spacingRight=4;overflow=hidden;rotatable=0;points=[[0,0.5],[1,0.5]];portConstraint=eastwest;" parent="zkfFHV4jXpPFQw0GAbJ--13" vertex="1">
          <mxGeometry y="186" width="280" height="26" as="geometry" />
        </mxCell>
        <mxCell id="zkfFHV4jXpPFQw0GAbJ--15" value="" style="line;html=1;strokeWidth=1;align=left;verticalAlign=middle;spacingTop=-1;spacingLeft=3;spacingRight=3;rotatable=0;labelPosition=right;points=[];portConstraint=eastwest;" parent="zkfFHV4jXpPFQw0GAbJ--13" vertex="1">
          <mxGeometry y="212" width="280" height="8" as="geometry" />
        </mxCell>
        <mxCell id="lbcptkGWw-PFIqOmlA4B-78" value="Constructors" style="text;align=left;verticalAlign=top;spacingLeft=4;spacingRight=4;overflow=hidden;rotatable=0;points=[[0,0.5],[1,0.5]];portConstraint=eastwest;fontStyle=5" parent="zkfFHV4jXpPFQw0GAbJ--13" vertex="1">
          <mxGeometry y="220" width="280" height="26" as="geometry" />
        </mxCell>
        <mxCell id="lbcptkGWw-PFIqOmlA4B-79" value="Header();&#xa;~Header();" style="text;align=left;verticalAlign=top;spacingLeft=4;spacingRight=4;overflow=hidden;rotatable=0;points=[[0,0.5],[1,0.5]];portConstraint=eastwest;" parent="zkfFHV4jXpPFQw0GAbJ--13" vertex="1">
          <mxGeometry y="246" width="280" height="44" as="geometry" />
        </mxCell>
        <mxCell id="lbcptkGWw-PFIqOmlA4B-80" value="" style="line;html=1;strokeWidth=1;align=left;verticalAlign=middle;spacingTop=-1;spacingLeft=3;spacingRight=3;rotatable=0;labelPosition=right;points=[];portConstraint=eastwest;" parent="zkfFHV4jXpPFQw0GAbJ--13" vertex="1">
          <mxGeometry y="290" width="280" height="8" as="geometry" />
        </mxCell>
        <mxCell id="lbcptkGWw-PFIqOmlA4B-81" value="Setters/Getters" style="text;align=left;verticalAlign=top;spacingLeft=4;spacingRight=4;overflow=hidden;rotatable=0;points=[[0,0.5],[1,0.5]];portConstraint=eastwest;fontStyle=5" parent="zkfFHV4jXpPFQw0GAbJ--13" vertex="1">
          <mxGeometry y="298" width="280" height="26" as="geometry" />
        </mxCell>
        <mxCell id="lbcptkGWw-PFIqOmlA4B-82" value="void setVersion(std::string version);&#xa;void setStatus(std::string status);&#xa;void setServer(std::string server);&#xa;void setDate();&#xa;void setLastModified(std::string lastModified);&#xa;void setContentLength(size_t contentLength);&#xa;void setContentType(std::string contentType);" style="text;align=left;verticalAlign=top;spacingLeft=4;spacingRight=4;overflow=hidden;rotatable=0;points=[[0,0.5],[1,0.5]];portConstraint=eastwest;" parent="zkfFHV4jXpPFQw0GAbJ--13" vertex="1">
          <mxGeometry y="324" width="280" height="126" as="geometry" />
        </mxCell>
        <mxCell id="lbcptkGWw-PFIqOmlA4B-83" value="" style="line;html=1;strokeWidth=1;align=left;verticalAlign=middle;spacingTop=-1;spacingLeft=3;spacingRight=3;rotatable=0;labelPosition=right;points=[];portConstraint=eastwest;" parent="zkfFHV4jXpPFQw0GAbJ--13" vertex="1">
          <mxGeometry y="450" width="280" height="8" as="geometry" />
        </mxCell>
        <mxCell id="lbcptkGWw-PFIqOmlA4B-84" value="Diverse" style="text;align=left;verticalAlign=top;spacingLeft=4;spacingRight=4;overflow=hidden;rotatable=0;points=[[0,0.5],[1,0.5]];portConstraint=eastwest;fontStyle=5" parent="zkfFHV4jXpPFQw0GAbJ--13" vertex="1">
          <mxGeometry y="458" width="280" height="26" as="geometry" />
        </mxCell>
        <mxCell id="lbcptkGWw-PFIqOmlA4B-77" value="std::string generateHeader() const;" style="text;align=left;verticalAlign=top;spacingLeft=4;spacingRight=4;overflow=hidden;rotatable=0;points=[[0,0.5],[1,0.5]];portConstraint=eastwest;" parent="zkfFHV4jXpPFQw0GAbJ--13" vertex="1">
          <mxGeometry y="484" width="280" height="36" as="geometry" />
        </mxCell>
        <mxCell id="zkfFHV4jXpPFQw0GAbJ--17" value="Server" style="swimlane;fontStyle=0;align=center;verticalAlign=top;childLayout=stackLayout;horizontal=1;startSize=26;horizontalStack=0;resizeParent=1;resizeLast=0;collapsible=1;marginBottom=0;rounded=0;shadow=0;strokeWidth=1;fillColor=#dae8fc;strokeColor=#6c8ebf;" parent="WIyWlLk6GJQsqaUBKTNV-1" vertex="1">
          <mxGeometry x="480" y="-4611" width="230" height="928" as="geometry">
            <mxRectangle x="550" y="140" width="160" height="26" as="alternateBounds" />
          </mxGeometry>
        </mxCell>
        <mxCell id="zkfFHV4jXpPFQw0GAbJ--18" value="        bool        isDefault;" style="text;align=left;verticalAlign=top;spacingLeft=4;spacingRight=4;overflow=hidden;rotatable=0;points=[[0,0.5],[1,0.5]];portConstraint=eastwest;fontStyle=0" parent="zkfFHV4jXpPFQw0GAbJ--17" vertex="1">
          <mxGeometry y="26" width="230" height="24" as="geometry" />
        </mxCell>
        <mxCell id="zkfFHV4jXpPFQw0GAbJ--19" value="std::map&lt;int, ListeningSocket *&gt; port;" style="text;align=left;verticalAlign=top;spacingLeft=4;spacingRight=4;overflow=hidden;rotatable=0;points=[[0,0.5],[1,0.5]];portConstraint=eastwest;rounded=0;shadow=0;html=0;fillColor=#fff2cc;strokeColor=#d6b656;" parent="zkfFHV4jXpPFQw0GAbJ--17" vertex="1">
          <mxGeometry y="50" width="230" height="26" as="geometry" />
        </mxCell>
        <mxCell id="ML2xo1FJerdkUP84CqIJ-5" value="std::vector&lt;std::string&gt; ports;" style="text;align=left;verticalAlign=top;spacingLeft=4;spacingRight=4;overflow=hidden;rotatable=0;points=[[0,0.5],[1,0.5]];portConstraint=eastwest;rounded=0;shadow=0;html=0;" parent="zkfFHV4jXpPFQw0GAbJ--17" vertex="1">
          <mxGeometry y="76" width="230" height="26" as="geometry" />
        </mxCell>
        <mxCell id="ML2xo1FJerdkUP84CqIJ-6" value="size_t maxClientBodySize;" style="text;align=left;verticalAlign=top;spacingLeft=4;spacingRight=4;overflow=hidden;rotatable=0;points=[[0,0.5],[1,0.5]];portConstraint=eastwest;rounded=0;shadow=0;html=0;" parent="zkfFHV4jXpPFQw0GAbJ--17" vertex="1">
          <mxGeometry y="102" width="230" height="26" as="geometry" />
        </mxCell>
        <mxCell id="ML2xo1FJerdkUP84CqIJ-7" value="std::string Host;" style="text;align=left;verticalAlign=top;spacingLeft=4;spacingRight=4;overflow=hidden;rotatable=0;points=[[0,0.5],[1,0.5]];portConstraint=eastwest;rounded=0;shadow=0;html=0;" parent="zkfFHV4jXpPFQw0GAbJ--17" vertex="1">
          <mxGeometry y="128" width="230" height="26" as="geometry" />
        </mxCell>
        <mxCell id="ML2xo1FJerdkUP84CqIJ-10" value="std::string serverName;" style="text;align=left;verticalAlign=top;spacingLeft=4;spacingRight=4;overflow=hidden;rotatable=0;points=[[0,0.5],[1,0.5]];portConstraint=eastwest;rounded=0;shadow=0;html=0;" parent="zkfFHV4jXpPFQw0GAbJ--17" vertex="1">
          <mxGeometry y="154" width="230" height="26" as="geometry" />
        </mxCell>
        <mxCell id="ML2xo1FJerdkUP84CqIJ-8" value="std::string errorPage;" style="text;align=left;verticalAlign=top;spacingLeft=4;spacingRight=4;overflow=hidden;rotatable=0;points=[[0,0.5],[1,0.5]];portConstraint=eastwest;rounded=0;shadow=0;html=0;" parent="zkfFHV4jXpPFQw0GAbJ--17" vertex="1">
          <mxGeometry y="180" width="230" height="26" as="geometry" />
        </mxCell>
        <mxCell id="ML2xo1FJerdkUP84CqIJ-9" value="std::string root;" style="text;align=left;verticalAlign=top;spacingLeft=4;spacingRight=4;overflow=hidden;rotatable=0;points=[[0,0.5],[1,0.5]];portConstraint=eastwest;rounded=0;shadow=0;html=0;" parent="zkfFHV4jXpPFQw0GAbJ--17" vertex="1">
          <mxGeometry y="206" width="230" height="26" as="geometry" />
        </mxCell>
        <mxCell id="ML2xo1FJerdkUP84CqIJ-16" value="std::string index;" style="text;align=left;verticalAlign=top;spacingLeft=4;spacingRight=4;overflow=hidden;rotatable=0;points=[[0,0.5],[1,0.5]];portConstraint=eastwest;rounded=0;shadow=0;html=0;" parent="zkfFHV4jXpPFQw0GAbJ--17" vertex="1">
          <mxGeometry y="232" width="230" height="26" as="geometry" />
        </mxCell>
        <mxCell id="ML2xo1FJerdkUP84CqIJ-15" value="std::string cgiExtension;" style="text;align=left;verticalAlign=top;spacingLeft=4;spacingRight=4;overflow=hidden;rotatable=0;points=[[0,0.5],[1,0.5]];portConstraint=eastwest;rounded=0;shadow=0;html=0;" parent="zkfFHV4jXpPFQw0GAbJ--17" vertex="1">
          <mxGeometry y="258" width="230" height="26" as="geometry" />
        </mxCell>
        <mxCell id="ML2xo1FJerdkUP84CqIJ-14" value="std::string cgiFolder;" style="text;align=left;verticalAlign=top;spacingLeft=4;spacingRight=4;overflow=hidden;rotatable=0;points=[[0,0.5],[1,0.5]];portConstraint=eastwest;rounded=0;shadow=0;html=0;" parent="zkfFHV4jXpPFQw0GAbJ--17" vertex="1">
          <mxGeometry y="284" width="230" height="26" as="geometry" />
        </mxCell>
        <mxCell id="ML2xo1FJerdkUP84CqIJ-13" value="std::vector&lt;Location *&gt; locations;" style="text;align=left;verticalAlign=top;spacingLeft=4;spacingRight=4;overflow=hidden;rotatable=0;points=[[0,0.5],[1,0.5]];portConstraint=eastwest;rounded=0;shadow=0;html=0;" parent="zkfFHV4jXpPFQw0GAbJ--17" vertex="1">
          <mxGeometry y="310" width="230" height="26" as="geometry" />
        </mxCell>
        <mxCell id="zkfFHV4jXpPFQw0GAbJ--23" value="" style="line;html=1;strokeWidth=1;align=left;verticalAlign=middle;spacingTop=-1;spacingLeft=3;spacingRight=3;rotatable=0;labelPosition=right;points=[];portConstraint=eastwest;" parent="zkfFHV4jXpPFQw0GAbJ--17" vertex="1">
          <mxGeometry y="336" width="230" height="8" as="geometry" />
        </mxCell>
        <mxCell id="lbcptkGWw-PFIqOmlA4B-35" value="Constructors" style="text;align=left;verticalAlign=top;spacingLeft=4;spacingRight=4;overflow=hidden;rotatable=0;points=[[0,0.5],[1,0.5]];portConstraint=eastwest;fontStyle=5" parent="zkfFHV4jXpPFQw0GAbJ--17" vertex="1">
          <mxGeometry y="344" width="230" height="26" as="geometry" />
        </mxCell>
        <mxCell id="zkfFHV4jXpPFQw0GAbJ--24" value=" Server();&#xa; Server(std::string const &amp;);&#xa; ~Server();&#xa; Server(Server const &amp;);&#xa; Server &amp;operator=(Server const &amp;);" style="text;align=left;verticalAlign=top;spacingLeft=4;spacingRight=4;overflow=hidden;rotatable=0;points=[[0,0.5],[1,0.5]];portConstraint=eastwest;" parent="zkfFHV4jXpPFQw0GAbJ--17" vertex="1">
          <mxGeometry y="370" width="230" height="86" as="geometry" />
        </mxCell>
        <mxCell id="lbcptkGWw-PFIqOmlA4B-34" value="" style="line;html=1;strokeWidth=1;align=left;verticalAlign=middle;spacingTop=-1;spacingLeft=3;spacingRight=3;rotatable=0;labelPosition=right;points=[];portConstraint=eastwest;" parent="zkfFHV4jXpPFQw0GAbJ--17" vertex="1">
          <mxGeometry y="456" width="230" height="8" as="geometry" />
        </mxCell>
        <mxCell id="lbcptkGWw-PFIqOmlA4B-36" value="Setters/Getters" style="text;align=left;verticalAlign=top;spacingLeft=4;spacingRight=4;overflow=hidden;rotatable=0;points=[[0,0.5],[1,0.5]];portConstraint=eastwest;fontStyle=5" parent="zkfFHV4jXpPFQw0GAbJ--17" vertex="1">
          <mxGeometry y="464" width="230" height="26" as="geometry" />
        </mxCell>
        <mxCell id="lbcptkGWw-PFIqOmlA4B-23" value="void    setPort(std::string const &amp;);&#xa;void    setHost(std::string const &amp;);&#xa;void    setServerName(std::string const &amp;);&#xa;void    setErrorPage(std::string const &amp;);&#xa;void    setClientMaxBodySize(std::string const &amp;);&#xa;void    setRoot(std::string const &amp;);&#xa;void    setIndex(std::string const &amp;);&#xa;void    setCGIExtension(std::string const &amp;);&#xa;void    setCGIFolder(std::string const &amp;);" style="text;align=left;verticalAlign=top;spacingLeft=4;spacingRight=4;overflow=hidden;rotatable=0;points=[[0,0.5],[1,0.5]];portConstraint=eastwest;" parent="zkfFHV4jXpPFQw0GAbJ--17" vertex="1">
          <mxGeometry y="490" width="230" height="132" as="geometry" />
        </mxCell>
        <mxCell id="lbcptkGWw-PFIqOmlA4B-33" value="std::string getHost();&#xa;std::string getServerName();&#xa;std::string getErrorPage();&#xa;std::string getRoot();&#xa;std::string getIndex();&#xa;std::string getCGIExtension();&#xa;std::string getCGIFolder();" style="text;align=left;verticalAlign=top;spacingLeft=4;spacingRight=4;overflow=hidden;rotatable=0;points=[[0,0.5],[1,0.5]];portConstraint=eastwest;" parent="zkfFHV4jXpPFQw0GAbJ--17" vertex="1">
          <mxGeometry y="622" width="230" height="110" as="geometry" />
        </mxCell>
        <mxCell id="lbcptkGWw-PFIqOmlA4B-42" value="" style="line;html=1;strokeWidth=1;align=left;verticalAlign=middle;spacingTop=-1;spacingLeft=3;spacingRight=3;rotatable=0;labelPosition=right;points=[];portConstraint=eastwest;" parent="zkfFHV4jXpPFQw0GAbJ--17" vertex="1">
          <mxGeometry y="732" width="230" height="8" as="geometry" />
        </mxCell>
        <mxCell id="lbcptkGWw-PFIqOmlA4B-32" value="Diverse" style="text;align=left;verticalAlign=top;spacingLeft=4;spacingRight=4;overflow=hidden;rotatable=0;points=[[0,0.5],[1,0.5]];portConstraint=eastwest;fontStyle=5" parent="zkfFHV4jXpPFQw0GAbJ--17" vertex="1">
          <mxGeometry y="740" width="230" height="26" as="geometry" />
        </mxCell>
        <mxCell id="lbcptkGWw-PFIqOmlA4B-31" value="int     loadData(std::string const &amp;);&#xa;void    addLocation(std::string const &amp;);&#xa;void    setIsDefault(std::string const &amp;);&#xa;ListeningSocket *getListening(int i);&#xa;std::vector&lt;int&gt; getServerFds();&#xa;ListeningSocket *       getPort(int i);&#xa;size_t          getClientBodySize();&#xa;bool getIsDefault();&#xa;void    setPorts(std::string const &amp;ports);&#xa;void    print();" style="text;align=left;verticalAlign=top;spacingLeft=4;spacingRight=4;overflow=hidden;rotatable=0;points=[[0,0.5],[1,0.5]];portConstraint=eastwest;" parent="zkfFHV4jXpPFQw0GAbJ--17" vertex="1">
          <mxGeometry y="766" width="230" height="162" as="geometry" />
        </mxCell>
        <mxCell id="ML2xo1FJerdkUP84CqIJ-17" value="ListeningSocket" style="swimlane;fontStyle=0;align=center;verticalAlign=top;childLayout=stackLayout;horizontal=1;startSize=20;horizontalStack=0;resizeParent=1;resizeLast=0;collapsible=1;marginBottom=0;rounded=0;shadow=0;strokeWidth=1;fillColor=#fff2cc;strokeColor=#d6b656;" parent="WIyWlLk6GJQsqaUBKTNV-1" vertex="1">
          <mxGeometry x="800" y="-4500" width="230" height="480" as="geometry">
            <mxRectangle x="550" y="140" width="160" height="26" as="alternateBounds" />
          </mxGeometry>
        </mxCell>
        <mxCell id="ML2xo1FJerdkUP84CqIJ-18" value="    Server *server;" style="text;align=left;verticalAlign=top;spacingLeft=4;spacingRight=4;overflow=hidden;rotatable=0;points=[[0,0.5],[1,0.5]];portConstraint=eastwest;fillColor=#dae8fc;strokeColor=#6c8ebf;" parent="ML2xo1FJerdkUP84CqIJ-17" vertex="1">
          <mxGeometry y="20" width="230" height="30" as="geometry" />
        </mxCell>
        <mxCell id="ML2xo1FJerdkUP84CqIJ-19" value="int port;" style="text;align=left;verticalAlign=top;spacingLeft=4;spacingRight=4;overflow=hidden;rotatable=0;points=[[0,0.5],[1,0.5]];portConstraint=eastwest;rounded=0;shadow=0;html=0;" parent="ML2xo1FJerdkUP84CqIJ-17" vertex="1">
          <mxGeometry y="50" width="230" height="30" as="geometry" />
        </mxCell>
        <mxCell id="ML2xo1FJerdkUP84CqIJ-20" value="int socketFd;" style="text;align=left;verticalAlign=top;spacingLeft=4;spacingRight=4;overflow=hidden;rotatable=0;points=[[0,0.5],[1,0.5]];portConstraint=eastwest;rounded=0;shadow=0;html=0;" parent="ML2xo1FJerdkUP84CqIJ-17" vertex="1">
          <mxGeometry y="80" width="230" height="26" as="geometry" />
        </mxCell>
        <mxCell id="ML2xo1FJerdkUP84CqIJ-21" value="int n;" style="text;align=left;verticalAlign=top;spacingLeft=4;spacingRight=4;overflow=hidden;rotatable=0;points=[[0,0.5],[1,0.5]];portConstraint=eastwest;rounded=0;shadow=0;html=0;" parent="ML2xo1FJerdkUP84CqIJ-17" vertex="1">
          <mxGeometry y="106" width="230" height="26" as="geometry" />
        </mxCell>
        <mxCell id="ML2xo1FJerdkUP84CqIJ-22" value="Client *client;" style="text;align=left;verticalAlign=top;spacingLeft=4;spacingRight=4;overflow=hidden;rotatable=0;points=[[0,0.5],[1,0.5]];portConstraint=eastwest;rounded=0;shadow=0;html=0;fillColor=#f5f5f5;fontColor=#333333;strokeColor=#666666;" parent="ML2xo1FJerdkUP84CqIJ-17" vertex="1">
          <mxGeometry y="132" width="230" height="26" as="geometry" />
        </mxCell>
        <mxCell id="ML2xo1FJerdkUP84CqIJ-30" value="" style="line;html=1;strokeWidth=1;align=left;verticalAlign=middle;spacingTop=-1;spacingLeft=3;spacingRight=3;rotatable=0;labelPosition=right;points=[];portConstraint=eastwest;" parent="ML2xo1FJerdkUP84CqIJ-17" vertex="1">
          <mxGeometry y="158" width="230" height="8" as="geometry" />
        </mxCell>
        <mxCell id="lbcptkGWw-PFIqOmlA4B-44" value="Constructors" style="text;align=left;verticalAlign=top;spacingLeft=4;spacingRight=4;overflow=hidden;rotatable=0;points=[[0,0.5],[1,0.5]];portConstraint=eastwest;fontStyle=5" parent="ML2xo1FJerdkUP84CqIJ-17" vertex="1">
          <mxGeometry y="166" width="230" height="26" as="geometry" />
        </mxCell>
        <mxCell id="ML2xo1FJerdkUP84CqIJ-31" value="ListeningSocket(int port, Server *srv);&#xa;ListeningSocket(Server *srv);&#xa;~ListeningSocket();" style="text;align=left;verticalAlign=top;spacingLeft=4;spacingRight=4;overflow=hidden;rotatable=0;points=[[0,0.5],[1,0.5]];portConstraint=eastwest;" parent="ML2xo1FJerdkUP84CqIJ-17" vertex="1">
          <mxGeometry y="192" width="230" height="58" as="geometry" />
        </mxCell>
        <mxCell id="lbcptkGWw-PFIqOmlA4B-62" value="" style="line;html=1;strokeWidth=1;align=left;verticalAlign=middle;spacingTop=-1;spacingLeft=3;spacingRight=3;rotatable=0;labelPosition=right;points=[];portConstraint=eastwest;" parent="ML2xo1FJerdkUP84CqIJ-17" vertex="1">
          <mxGeometry y="250" width="230" height="8" as="geometry" />
        </mxCell>
        <mxCell id="lbcptkGWw-PFIqOmlA4B-61" value="Setters/Getters" style="text;align=left;verticalAlign=top;spacingLeft=4;spacingRight=4;overflow=hidden;rotatable=0;points=[[0,0.5],[1,0.5]];portConstraint=eastwest;fontStyle=5" parent="ML2xo1FJerdkUP84CqIJ-17" vertex="1">
          <mxGeometry y="258" width="230" height="26" as="geometry" />
        </mxCell>
        <mxCell id="lbcptkGWw-PFIqOmlA4B-48" value="int getPort();&#xa;int getFd();&#xa;std::string getServerName();&#xa;Client *getClientPtr();&#xa;" style="text;align=left;verticalAlign=top;spacingLeft=4;spacingRight=4;overflow=hidden;rotatable=0;points=[[0,0.5],[1,0.5]];portConstraint=eastwest;" parent="ML2xo1FJerdkUP84CqIJ-17" vertex="1">
          <mxGeometry y="284" width="230" height="66" as="geometry" />
        </mxCell>
        <mxCell id="lbcptkGWw-PFIqOmlA4B-65" value="" style="line;html=1;strokeWidth=1;align=left;verticalAlign=middle;spacingTop=-1;spacingLeft=3;spacingRight=3;rotatable=0;labelPosition=right;points=[];portConstraint=eastwest;" parent="ML2xo1FJerdkUP84CqIJ-17" vertex="1">
          <mxGeometry y="350" width="230" height="8" as="geometry" />
        </mxCell>
        <mxCell id="lbcptkGWw-PFIqOmlA4B-64" value="Diverse" style="text;align=left;verticalAlign=top;spacingLeft=4;spacingRight=4;overflow=hidden;rotatable=0;points=[[0,0.5],[1,0.5]];portConstraint=eastwest;fontStyle=5" parent="ML2xo1FJerdkUP84CqIJ-17" vertex="1">
          <mxGeometry y="358" width="230" height="26" as="geometry" />
        </mxCell>
        <mxCell id="lbcptkGWw-PFIqOmlA4B-60" value="bool startListening();&#xa;void stopListening();&#xa;bool sendData(int);&#xa;void loadRequest(char *buff);&#xa;ListeningSocket *clone(int fd);" style="text;align=left;verticalAlign=top;spacingLeft=4;spacingRight=4;overflow=hidden;rotatable=0;points=[[0,0.5],[1,0.5]];portConstraint=eastwest;" parent="ML2xo1FJerdkUP84CqIJ-17" vertex="1">
          <mxGeometry y="384" width="230" height="86" as="geometry" />
        </mxCell>
        <mxCell id="ML2xo1FJerdkUP84CqIJ-41" value="Client" style="swimlane;fontStyle=0;align=center;verticalAlign=top;childLayout=stackLayout;horizontal=1;startSize=26;horizontalStack=0;resizeParent=1;resizeLast=0;collapsible=1;marginBottom=0;rounded=0;shadow=0;strokeWidth=1;fillColor=#f5f5f5;fontColor=#333333;strokeColor=#666666;" parent="WIyWlLk6GJQsqaUBKTNV-1" vertex="1">
          <mxGeometry x="1100" y="-4350" width="240" height="640" as="geometry">
            <mxRectangle x="340" y="380" width="170" height="26" as="alternateBounds" />
          </mxGeometry>
        </mxCell>
        <mxCell id="ML2xo1FJerdkUP84CqIJ-42" value="    std::map&lt;std::string, std::string&gt; Request;" style="text;align=left;verticalAlign=top;spacingLeft=4;spacingRight=4;overflow=hidden;rotatable=0;points=[[0,0.5],[1,0.5]];portConstraint=eastwest;" parent="ML2xo1FJerdkUP84CqIJ-41" vertex="1">
          <mxGeometry y="26" width="240" height="34" as="geometry" />
        </mxCell>
        <mxCell id="ML2xo1FJerdkUP84CqIJ-46" value="Server *server;" style="text;align=left;verticalAlign=top;spacingLeft=4;spacingRight=4;overflow=hidden;rotatable=0;points=[[0,0.5],[1,0.5]];portConstraint=eastwest;fillColor=#dae8fc;strokeColor=#6c8ebf;" parent="ML2xo1FJerdkUP84CqIJ-41" vertex="1">
          <mxGeometry y="60" width="240" height="30" as="geometry" />
        </mxCell>
        <mxCell id="ML2xo1FJerdkUP84CqIJ-44" value="FileContent fileContent;" style="text;align=left;verticalAlign=top;spacingLeft=4;spacingRight=4;overflow=hidden;rotatable=0;points=[[0,0.5],[1,0.5]];portConstraint=eastwest;fillColor=#d5e8d4;strokeColor=#82b366;" parent="ML2xo1FJerdkUP84CqIJ-41" vertex="1">
          <mxGeometry y="90" width="240" height="30" as="geometry" />
        </mxCell>
        <mxCell id="ML2xo1FJerdkUP84CqIJ-45" value="Header header;" style="text;align=left;verticalAlign=top;spacingLeft=4;spacingRight=4;overflow=hidden;rotatable=0;points=[[0,0.5],[1,0.5]];portConstraint=eastwest;fillColor=#e1d5e7;strokeColor=#9673a6;" parent="ML2xo1FJerdkUP84CqIJ-41" vertex="1">
          <mxGeometry y="120" width="240" height="30" as="geometry" />
        </mxCell>
        <mxCell id="1x-KyrQFURj-LHtZxxdS-33" value="Receive *receiver;" style="text;align=left;verticalAlign=top;spacingLeft=4;spacingRight=4;overflow=hidden;rotatable=0;points=[[0,0.5],[1,0.5]];portConstraint=eastwest;fillColor=#e1d5e7;strokeColor=#9673a6;" parent="ML2xo1FJerdkUP84CqIJ-41" vertex="1">
          <mxGeometry y="150" width="240" height="30" as="geometry" />
        </mxCell>
        <mxCell id="ML2xo1FJerdkUP84CqIJ-43" value="" style="line;html=1;strokeWidth=1;align=left;verticalAlign=middle;spacingTop=-1;spacingLeft=3;spacingRight=3;rotatable=0;labelPosition=right;points=[];portConstraint=eastwest;" parent="ML2xo1FJerdkUP84CqIJ-41" vertex="1">
          <mxGeometry y="180" width="240" height="8" as="geometry" />
        </mxCell>
        <mxCell id="lbcptkGWw-PFIqOmlA4B-68" value="Constructors" style="text;align=left;verticalAlign=top;spacingLeft=4;spacingRight=4;overflow=hidden;rotatable=0;points=[[0,0.5],[1,0.5]];portConstraint=eastwest;fontStyle=5" parent="ML2xo1FJerdkUP84CqIJ-41" vertex="1">
          <mxGeometry y="188" width="240" height="26" as="geometry" />
        </mxCell>
        <mxCell id="lbcptkGWw-PFIqOmlA4B-70" value="Client();&#xa;Client(std::string const &amp;, Server *);&#xa;Client(Server *);&#xa;Client &amp;operator=(Client const &amp;);&#xa;    ~Client();" style="text;align=left;verticalAlign=top;spacingLeft=4;spacingRight=4;overflow=hidden;rotatable=0;points=[[0,0.5],[1,0.5]];portConstraint=eastwest;" parent="ML2xo1FJerdkUP84CqIJ-41" vertex="1">
          <mxGeometry y="214" width="240" height="80" as="geometry" />
        </mxCell>
        <mxCell id="lbcptkGWw-PFIqOmlA4B-72" value="" style="line;html=1;strokeWidth=1;align=left;verticalAlign=middle;spacingTop=-1;spacingLeft=3;spacingRight=3;rotatable=0;labelPosition=right;points=[];portConstraint=eastwest;" parent="ML2xo1FJerdkUP84CqIJ-41" vertex="1">
          <mxGeometry y="294" width="240" height="8" as="geometry" />
        </mxCell>
        <mxCell id="lbcptkGWw-PFIqOmlA4B-69" value="Setters/Getters" style="text;align=left;verticalAlign=top;spacingLeft=4;spacingRight=4;overflow=hidden;rotatable=0;points=[[0,0.5],[1,0.5]];portConstraint=eastwest;fontStyle=5" parent="ML2xo1FJerdkUP84CqIJ-41" vertex="1">
          <mxGeometry y="302" width="240" height="26" as="geometry" />
        </mxCell>
        <mxCell id="lbcptkGWw-PFIqOmlA4B-71" value="void addKeyReq(std::string const &amp;, std::string const &amp;);&#xa;void addKeyType(std::string const &amp;);&#xa;void addKeyFile(std::string const &amp;);&#xa;void addKeyVers(std::string const &amp;);&#xa;std::string getAnswerToSend();&#xa;std::string getFilePath();&#xa;std::string getFileContent(std::string filename);&#xa;std::string getFileContent();" style="text;align=left;verticalAlign=top;spacingLeft=4;spacingRight=4;overflow=hidden;rotatable=0;points=[[0,0.5],[1,0.5]];portConstraint=eastwest;" parent="ML2xo1FJerdkUP84CqIJ-41" vertex="1">
          <mxGeometry y="328" width="240" height="126" as="geometry" />
        </mxCell>
        <mxCell id="lbcptkGWw-PFIqOmlA4B-74" value="" style="line;html=1;strokeWidth=1;align=left;verticalAlign=middle;spacingTop=-1;spacingLeft=3;spacingRight=3;rotatable=0;labelPosition=right;points=[];portConstraint=eastwest;" parent="ML2xo1FJerdkUP84CqIJ-41" vertex="1">
          <mxGeometry y="454" width="240" height="8" as="geometry" />
        </mxCell>
        <mxCell id="lbcptkGWw-PFIqOmlA4B-75" value="Diverse" style="text;align=left;verticalAlign=top;spacingLeft=4;spacingRight=4;overflow=hidden;rotatable=0;points=[[0,0.5],[1,0.5]];portConstraint=eastwest;fontStyle=5" parent="ML2xo1FJerdkUP84CqIJ-41" vertex="1">
          <mxGeometry y="462" width="240" height="26" as="geometry" />
        </mxCell>
        <mxCell id="lbcptkGWw-PFIqOmlA4B-76" value="std::map&lt;std::string, std::string&gt;::iterator findClient(std::string const &amp;);&#xa;std::map&lt;std::string, std::string&gt;::iterator getBeginClient();&#xa;std::map&lt;std::string, std::string&gt;::iterator getEndClient();&#xa;void clearClient();&#xa;void deleteClient(std::string const &amp;);&#xa;void updateClient(std::string const &amp;, std::string const &amp;);&#xa;void loadCompleteClient(Receive *receiver)&#xa;std::string normalizePath(std::string path);&#xa;bool isSendComplete();&#xa;void loadDataHeader();" style="text;align=left;verticalAlign=top;spacingLeft=4;spacingRight=4;overflow=hidden;rotatable=0;points=[[0,0.5],[1,0.5]];portConstraint=eastwest;" parent="ML2xo1FJerdkUP84CqIJ-41" vertex="1">
          <mxGeometry y="488" width="240" height="152" as="geometry" />
        </mxCell>
        <mxCell id="ML2xo1FJerdkUP84CqIJ-54" style="edgeStyle=orthogonalEdgeStyle;rounded=0;orthogonalLoop=1;jettySize=auto;html=1;entryX=0.5;entryY=0;entryDx=0;entryDy=0;" parent="WIyWlLk6GJQsqaUBKTNV-1" source="ML2xo1FJerdkUP84CqIJ-45" target="zkfFHV4jXpPFQw0GAbJ--13" edge="1">
          <mxGeometry relative="1" as="geometry">
            <Array as="points">
              <mxPoint x="1390" y="-4215" />
              <mxPoint x="1390" y="-4880" />
              <mxPoint x="1550" y="-4880" />
            </Array>
          </mxGeometry>
        </mxCell>
        <mxCell id="ML2xo1FJerdkUP84CqIJ-56" style="edgeStyle=orthogonalEdgeStyle;rounded=0;orthogonalLoop=1;jettySize=auto;html=1;exitX=1;exitY=0.5;exitDx=0;exitDy=0;entryX=0.5;entryY=0;entryDx=0;entryDy=0;" parent="WIyWlLk6GJQsqaUBKTNV-1" source="ML2xo1FJerdkUP84CqIJ-44" target="zkfFHV4jXpPFQw0GAbJ--6" edge="1">
          <mxGeometry relative="1" as="geometry">
            <mxPoint x="1800" y="-4500" as="targetPoint" />
            <Array as="points">
              <mxPoint x="1370" y="-4245" />
              <mxPoint x="1370" y="-4890" />
              <mxPoint x="2145" y="-4890" />
            </Array>
          </mxGeometry>
        </mxCell>
        <mxCell id="ML2xo1FJerdkUP84CqIJ-57" style="edgeStyle=orthogonalEdgeStyle;rounded=0;orthogonalLoop=1;jettySize=auto;html=1;entryX=0.5;entryY=0;entryDx=0;entryDy=0;exitX=1;exitY=0.5;exitDx=0;exitDy=0;" parent="WIyWlLk6GJQsqaUBKTNV-1" source="ML2xo1FJerdkUP84CqIJ-46" target="zkfFHV4jXpPFQw0GAbJ--17" edge="1">
          <mxGeometry relative="1" as="geometry">
            <Array as="points">
              <mxPoint x="1360" y="-4275" />
              <mxPoint x="1360" y="-4910" />
              <mxPoint x="695" y="-4910" />
              <mxPoint x="695" y="-4690" />
              <mxPoint x="595" y="-4690" />
            </Array>
          </mxGeometry>
        </mxCell>
        <mxCell id="ML2xo1FJerdkUP84CqIJ-58" style="edgeStyle=orthogonalEdgeStyle;rounded=0;orthogonalLoop=1;jettySize=auto;html=1;entryX=0.5;entryY=0;entryDx=0;entryDy=0;exitX=1;exitY=0.5;exitDx=0;exitDy=0;" parent="WIyWlLk6GJQsqaUBKTNV-1" source="ML2xo1FJerdkUP84CqIJ-18" target="zkfFHV4jXpPFQw0GAbJ--17" edge="1">
          <mxGeometry relative="1" as="geometry">
            <Array as="points">
              <mxPoint x="1100" y="-4465" />
              <mxPoint x="1100" y="-4796" />
              <mxPoint x="1250" y="-4796" />
              <mxPoint x="1250" y="-4870" />
              <mxPoint x="695" y="-4870" />
              <mxPoint x="695" y="-4690" />
              <mxPoint x="595" y="-4690" />
            </Array>
          </mxGeometry>
        </mxCell>
        <mxCell id="ML2xo1FJerdkUP84CqIJ-59" style="edgeStyle=orthogonalEdgeStyle;rounded=0;orthogonalLoop=1;jettySize=auto;html=1;entryX=0.5;entryY=0;entryDx=0;entryDy=0;" parent="WIyWlLk6GJQsqaUBKTNV-1" source="ML2xo1FJerdkUP84CqIJ-22" target="ML2xo1FJerdkUP84CqIJ-41" edge="1">
          <mxGeometry relative="1" as="geometry" />
        </mxCell>
        <mxCell id="ML2xo1FJerdkUP84CqIJ-60" style="edgeStyle=orthogonalEdgeStyle;rounded=0;orthogonalLoop=1;jettySize=auto;html=1;entryX=0.5;entryY=0;entryDx=0;entryDy=0;exitX=1;exitY=0.5;exitDx=0;exitDy=0;" parent="WIyWlLk6GJQsqaUBKTNV-1" source="zkfFHV4jXpPFQw0GAbJ--3" target="ML2xo1FJerdkUP84CqIJ-17" edge="1">
          <mxGeometry relative="1" as="geometry">
            <Array as="points">
              <mxPoint x="520" y="-4747" />
              <mxPoint x="520" y="-4930" />
              <mxPoint x="915" y="-4930" />
            </Array>
          </mxGeometry>
        </mxCell>
        <mxCell id="ML2xo1FJerdkUP84CqIJ-61" style="edgeStyle=orthogonalEdgeStyle;rounded=0;orthogonalLoop=1;jettySize=auto;html=1;entryX=0.5;entryY=0;entryDx=0;entryDy=0;" parent="WIyWlLk6GJQsqaUBKTNV-1" source="ML2xo1FJerdkUP84CqIJ-1" target="ML2xo1FJerdkUP84CqIJ-17" edge="1">
          <mxGeometry relative="1" as="geometry">
            <Array as="points">
              <mxPoint x="540" y="-4720" />
              <mxPoint x="540" y="-4930" />
              <mxPoint x="915" y="-4930" />
            </Array>
          </mxGeometry>
        </mxCell>
        <mxCell id="ML2xo1FJerdkUP84CqIJ-62" style="edgeStyle=orthogonalEdgeStyle;rounded=0;orthogonalLoop=1;jettySize=auto;html=1;entryX=0.5;entryY=0;entryDx=0;entryDy=0;" parent="WIyWlLk6GJQsqaUBKTNV-1" source="ML2xo1FJerdkUP84CqIJ-2" target="zkfFHV4jXpPFQw0GAbJ--17" edge="1">
          <mxGeometry relative="1" as="geometry" />
        </mxCell>
        <mxCell id="ML2xo1FJerdkUP84CqIJ-63" style="edgeStyle=orthogonalEdgeStyle;rounded=0;orthogonalLoop=1;jettySize=auto;html=1;entryX=0.5;entryY=0;entryDx=0;entryDy=0;exitX=1;exitY=0.5;exitDx=0;exitDy=0;" parent="WIyWlLk6GJQsqaUBKTNV-1" source="zkfFHV4jXpPFQw0GAbJ--19" target="ML2xo1FJerdkUP84CqIJ-17" edge="1">
          <mxGeometry relative="1" as="geometry">
            <Array as="points">
              <mxPoint x="820" y="-4548" />
              <mxPoint x="820" y="-4550" />
              <mxPoint x="905" y="-4550" />
              <mxPoint x="905" y="-4540" />
              <mxPoint x="915" y="-4540" />
            </Array>
          </mxGeometry>
        </mxCell>
        <mxCell id="ML2xo1FJerdkUP84CqIJ-77" value="CGI" style="swimlane;fontStyle=0;align=center;verticalAlign=top;childLayout=stackLayout;horizontal=1;startSize=26;horizontalStack=0;resizeParent=1;resizeLast=0;collapsible=1;marginBottom=0;rounded=0;shadow=0;strokeWidth=1;fillColor=#e1d5e7;strokeColor=#9673a6;" parent="WIyWlLk6GJQsqaUBKTNV-1" vertex="1">
          <mxGeometry x="1860" y="-4135" width="260" height="340" as="geometry">
            <mxRectangle x="340" y="380" width="170" height="26" as="alternateBounds" />
          </mxGeometry>
        </mxCell>
        <mxCell id="ML2xo1FJerdkUP84CqIJ-78" value="    std::string file_name;" style="text;align=left;verticalAlign=top;spacingLeft=4;spacingRight=4;overflow=hidden;rotatable=0;points=[[0,0.5],[1,0.5]];portConstraint=eastwest;" parent="ML2xo1FJerdkUP84CqIJ-77" vertex="1">
          <mxGeometry y="26" width="260" height="24" as="geometry" />
        </mxCell>
        <mxCell id="ML2xo1FJerdkUP84CqIJ-84" value="std::vector &lt;std::string&gt; args;" style="text;align=left;verticalAlign=top;spacingLeft=4;spacingRight=4;overflow=hidden;rotatable=0;points=[[0,0.5],[1,0.5]];portConstraint=eastwest;" parent="ML2xo1FJerdkUP84CqIJ-77" vertex="1">
          <mxGeometry y="50" width="260" height="26" as="geometry" />
        </mxCell>
        <mxCell id="ML2xo1FJerdkUP84CqIJ-85" value="" style="line;html=1;strokeWidth=1;align=left;verticalAlign=middle;spacingTop=-1;spacingLeft=3;spacingRight=3;rotatable=0;labelPosition=right;points=[];portConstraint=eastwest;" parent="ML2xo1FJerdkUP84CqIJ-77" vertex="1">
          <mxGeometry y="76" width="260" height="8" as="geometry" />
        </mxCell>
        <mxCell id="pY6plJQ5NbvBiuXEBZzD-1" value="Constructors" style="text;align=left;verticalAlign=top;spacingLeft=4;spacingRight=4;overflow=hidden;rotatable=0;points=[[0,0.5],[1,0.5]];portConstraint=eastwest;fontStyle=5" parent="ML2xo1FJerdkUP84CqIJ-77" vertex="1">
          <mxGeometry y="84" width="260" height="26" as="geometry" />
        </mxCell>
        <mxCell id="pY6plJQ5NbvBiuXEBZzD-2" value="CGI();&#xa;CGI(const std::string&amp; str);&#xa;~CGI();" style="text;align=left;verticalAlign=top;spacingLeft=4;spacingRight=4;overflow=hidden;rotatable=0;points=[[0,0.5],[1,0.5]];portConstraint=eastwest;fontStyle=0" parent="ML2xo1FJerdkUP84CqIJ-77" vertex="1">
          <mxGeometry y="110" width="260" height="56" as="geometry" />
        </mxCell>
        <mxCell id="pY6plJQ5NbvBiuXEBZzD-4" value="" style="line;html=1;strokeWidth=1;align=left;verticalAlign=middle;spacingTop=-1;spacingLeft=3;spacingRight=3;rotatable=0;labelPosition=right;points=[];portConstraint=eastwest;" parent="ML2xo1FJerdkUP84CqIJ-77" vertex="1">
          <mxGeometry y="166" width="260" height="8" as="geometry" />
        </mxCell>
        <mxCell id="pY6plJQ5NbvBiuXEBZzD-3" value="Setters/Getters" style="text;align=left;verticalAlign=top;spacingLeft=4;spacingRight=4;overflow=hidden;rotatable=0;points=[[0,0.5],[1,0.5]];portConstraint=eastwest;fontStyle=5" parent="ML2xo1FJerdkUP84CqIJ-77" vertex="1">
          <mxGeometry y="174" width="260" height="26" as="geometry" />
        </mxCell>
        <mxCell id="pY6plJQ5NbvBiuXEBZzD-5" value="void setFileName(const std::string&amp; str);&#xa;std::string getFileName();&#xa;void setArgs(const std::vector &lt;std::string&gt;&amp;);&#xa;std::vector &lt;std::string&gt; getArgs();" style="text;align=left;verticalAlign=top;spacingLeft=4;spacingRight=4;overflow=hidden;rotatable=0;points=[[0,0.5],[1,0.5]];portConstraint=eastwest;" parent="ML2xo1FJerdkUP84CqIJ-77" vertex="1">
          <mxGeometry y="200" width="260" height="70" as="geometry" />
        </mxCell>
        <mxCell id="pY6plJQ5NbvBiuXEBZzD-9" value="" style="line;html=1;strokeWidth=1;align=left;verticalAlign=middle;spacingTop=-1;spacingLeft=3;spacingRight=3;rotatable=0;labelPosition=right;points=[];portConstraint=eastwest;" parent="ML2xo1FJerdkUP84CqIJ-77" vertex="1">
          <mxGeometry y="270" width="260" height="8" as="geometry" />
        </mxCell>
        <mxCell id="pY6plJQ5NbvBiuXEBZzD-10" value="Diverse" style="text;align=left;verticalAlign=top;spacingLeft=4;spacingRight=4;overflow=hidden;rotatable=0;points=[[0,0.5],[1,0.5]];portConstraint=eastwest;fontStyle=5" parent="ML2xo1FJerdkUP84CqIJ-77" vertex="1">
          <mxGeometry y="278" width="260" height="26" as="geometry" />
        </mxCell>
        <mxCell id="pY6plJQ5NbvBiuXEBZzD-11" value="std::string execute();" style="text;align=left;verticalAlign=top;spacingLeft=4;spacingRight=4;overflow=hidden;rotatable=0;points=[[0,0.5],[1,0.5]];portConstraint=eastwest;" parent="ML2xo1FJerdkUP84CqIJ-77" vertex="1">
          <mxGeometry y="304" width="260" height="36" as="geometry" />
        </mxCell>
        <mxCell id="ML2xo1FJerdkUP84CqIJ-86" style="edgeStyle=orthogonalEdgeStyle;rounded=0;orthogonalLoop=1;jettySize=auto;html=1;entryX=0.5;entryY=0;entryDx=0;entryDy=0;" parent="WIyWlLk6GJQsqaUBKTNV-1" source="ML2xo1FJerdkUP84CqIJ-69" target="ML2xo1FJerdkUP84CqIJ-77" edge="1">
          <mxGeometry relative="1" as="geometry" />
        </mxCell>
        <mxCell id="YF6p2MlqfLs1I0y3U6K9-6" style="edgeStyle=orthogonalEdgeStyle;rounded=0;orthogonalLoop=1;jettySize=auto;html=1;entryX=0;entryY=0.5;entryDx=0;entryDy=0;" parent="WIyWlLk6GJQsqaUBKTNV-1" source="YF6p2MlqfLs1I0y3U6K9-1" target="YF6p2MlqfLs1I0y3U6K9-5" edge="1">
          <mxGeometry relative="1" as="geometry" />
        </mxCell>
        <mxCell id="YF6p2MlqfLs1I0y3U6K9-1" value="main" style="text;align=left;verticalAlign=top;spacingLeft=4;spacingRight=4;overflow=hidden;rotatable=0;points=[[0,0.5],[1,0.5]];portConstraint=eastwest;fontStyle=5" parent="WIyWlLk6GJQsqaUBKTNV-1" vertex="1">
          <mxGeometry x="4" y="-3310" width="53" height="34" as="geometry" />
        </mxCell>
        <mxCell id="YF6p2MlqfLs1I0y3U6K9-2" value="void WebServer::createQueue ();" style="text;align=left;verticalAlign=top;spacingLeft=4;spacingRight=4;overflow=hidden;rotatable=0;points=[[0,0.5],[1,0.5]];portConstraint=eastwest;" parent="WIyWlLk6GJQsqaUBKTNV-1" vertex="1">
          <mxGeometry x="280" y="-3220" width="190" height="22" as="geometry" />
        </mxCell>
        <mxCell id="YF6p2MlqfLs1I0y3U6K9-3" value="void WebServer::addEventSet();" style="text;align=left;verticalAlign=top;spacingLeft=4;spacingRight=4;overflow=hidden;rotatable=0;points=[[0,0.5],[1,0.5]];portConstraint=eastwest;" parent="WIyWlLk6GJQsqaUBKTNV-1" vertex="1">
          <mxGeometry x="280" y="-3198" width="160" height="26" as="geometry" />
        </mxCell>
        <mxCell id="YF6p2MlqfLs1I0y3U6K9-9" style="edgeStyle=orthogonalEdgeStyle;rounded=0;orthogonalLoop=1;jettySize=auto;html=1;entryX=0;entryY=0.5;entryDx=0;entryDy=0;" parent="WIyWlLk6GJQsqaUBKTNV-1" source="YF6p2MlqfLs1I0y3U6K9-4" target="YF6p2MlqfLs1I0y3U6K9-2" edge="1">
          <mxGeometry relative="1" as="geometry" />
        </mxCell>
        <mxCell id="YF6p2MlqfLs1I0y3U6K9-10" style="edgeStyle=orthogonalEdgeStyle;rounded=0;orthogonalLoop=1;jettySize=auto;html=1;entryX=0;entryY=0.5;entryDx=0;entryDy=0;" parent="WIyWlLk6GJQsqaUBKTNV-1" source="YF6p2MlqfLs1I0y3U6K9-4" target="YF6p2MlqfLs1I0y3U6K9-3" edge="1">
          <mxGeometry relative="1" as="geometry" />
        </mxCell>
        <mxCell id="YF6p2MlqfLs1I0y3U6K9-31" style="edgeStyle=orthogonalEdgeStyle;rounded=0;orthogonalLoop=1;jettySize=auto;html=1;entryX=0;entryY=0.5;entryDx=0;entryDy=0;" parent="WIyWlLk6GJQsqaUBKTNV-1" source="YF6p2MlqfLs1I0y3U6K9-4" target="YF6p2MlqfLs1I0y3U6K9-30" edge="1">
          <mxGeometry relative="1" as="geometry" />
        </mxCell>
        <mxCell id="YF6p2MlqfLs1I0y3U6K9-4" value="void &amp;nbsp; &amp;nbsp;launchServers();&amp;nbsp;&lt;div style=&quot;forced-color-adjust: none; padding: 0px; margin: 0px;&quot;&gt;&lt;br style=&quot;forced-color-adjust: none; padding: 0px; margin: 0px; color: rgb(0, 0, 0); font-family: Helvetica; font-size: 12px; font-style: normal; font-variant-ligatures: normal; font-variant-caps: normal; font-weight: 400; letter-spacing: normal; orphans: 2; text-align: left; text-indent: 0px; text-transform: none; widows: 2; word-spacing: 0px; -webkit-text-stroke-width: 0px; white-space: nowrap; background-color: rgb(251, 251, 251); text-decoration-thickness: initial; text-decoration-style: initial; text-decoration-color: initial;&quot;&gt;&#xa;&#xa;&lt;/div&gt;" style="text;whiteSpace=wrap;html=1;" parent="WIyWlLk6GJQsqaUBKTNV-1" vertex="1">
          <mxGeometry x="90" y="-3224" width="130" height="30" as="geometry" />
        </mxCell>
        <mxCell id="YF6p2MlqfLs1I0y3U6K9-12" style="edgeStyle=orthogonalEdgeStyle;rounded=0;orthogonalLoop=1;jettySize=auto;html=1;entryX=0;entryY=0.5;entryDx=0;entryDy=0;" parent="WIyWlLk6GJQsqaUBKTNV-1" source="YF6p2MlqfLs1I0y3U6K9-5" target="YF6p2MlqfLs1I0y3U6K9-11" edge="1">
          <mxGeometry relative="1" as="geometry" />
        </mxCell>
        <mxCell id="YF6p2MlqfLs1I0y3U6K9-56" style="edgeStyle=orthogonalEdgeStyle;rounded=0;orthogonalLoop=1;jettySize=auto;html=1;" parent="WIyWlLk6GJQsqaUBKTNV-1" source="YF6p2MlqfLs1I0y3U6K9-5" target="YF6p2MlqfLs1I0y3U6K9-4" edge="1">
          <mxGeometry relative="1" as="geometry" />
        </mxCell>
        <mxCell id="YF6p2MlqfLs1I0y3U6K9-5" value="void &amp;nbsp; &amp;nbsp;loadConfigFile(std::string configFile);&lt;div style=&quot;forced-color-adjust: none; padding: 0px; margin: 0px;&quot;&gt;&lt;br style=&quot;forced-color-adjust: none; padding: 0px; margin: 0px; color: rgb(0, 0, 0); font-family: Helvetica; font-size: 12px; font-style: normal; font-variant-ligatures: normal; font-variant-caps: normal; font-weight: 400; letter-spacing: normal; orphans: 2; text-align: left; text-indent: 0px; text-transform: none; widows: 2; word-spacing: 0px; -webkit-text-stroke-width: 0px; white-space: nowrap; background-color: rgb(251, 251, 251); text-decoration-thickness: initial; text-decoration-style: initial; text-decoration-color: initial;&quot;&gt;&#xa;&#xa;&lt;/div&gt;" style="text;whiteSpace=wrap;html=1;" parent="WIyWlLk6GJQsqaUBKTNV-1" vertex="1">
          <mxGeometry x="90" y="-3308" width="240" height="30" as="geometry" />
        </mxCell>
        <mxCell id="YF6p2MlqfLs1I0y3U6K9-14" style="edgeStyle=orthogonalEdgeStyle;rounded=0;orthogonalLoop=1;jettySize=auto;html=1;" parent="WIyWlLk6GJQsqaUBKTNV-1" source="YF6p2MlqfLs1I0y3U6K9-11" target="YF6p2MlqfLs1I0y3U6K9-13" edge="1">
          <mxGeometry relative="1" as="geometry" />
        </mxCell>
        <mxCell id="YF6p2MlqfLs1I0y3U6K9-11" value="&lt;span style=&quot;color: rgb(0, 0, 0); font-family: Helvetica; font-size: 12px; font-style: normal; font-variant-ligatures: normal; font-variant-caps: normal; font-weight: 400; letter-spacing: normal; orphans: 2; text-align: left; text-indent: 0px; text-transform: none; widows: 2; word-spacing: 0px; -webkit-text-stroke-width: 0px; white-space: nowrap; background-color: rgb(251, 251, 251); text-decoration-thickness: initial; text-decoration-style: initial; text-decoration-color: initial; display: inline !important; float: none;&quot;&gt;void WebServer::processConfigFile()&lt;/span&gt;" style="text;whiteSpace=wrap;html=1;" parent="WIyWlLk6GJQsqaUBKTNV-1" vertex="1">
          <mxGeometry x="400" y="-3268" width="210" height="30" as="geometry" />
        </mxCell>
        <mxCell id="YF6p2MlqfLs1I0y3U6K9-16" style="edgeStyle=orthogonalEdgeStyle;rounded=0;orthogonalLoop=1;jettySize=auto;html=1;entryX=0;entryY=0.5;entryDx=0;entryDy=0;" parent="WIyWlLk6GJQsqaUBKTNV-1" source="YF6p2MlqfLs1I0y3U6K9-13" target="YF6p2MlqfLs1I0y3U6K9-15" edge="1">
          <mxGeometry relative="1" as="geometry" />
        </mxCell>
        <mxCell id="YF6p2MlqfLs1I0y3U6K9-13" value="&lt;span style=&quot;color: rgb(0, 0, 0); font-family: Helvetica; font-size: 12px; font-style: normal; font-variant-ligatures: normal; font-variant-caps: normal; font-weight: 400; letter-spacing: normal; orphans: 2; text-align: left; text-indent: 0px; text-transform: none; widows: 2; word-spacing: 0px; -webkit-text-stroke-width: 0px; white-space: nowrap; background-color: rgb(251, 251, 251); text-decoration-thickness: initial; text-decoration-style: initial; text-decoration-color: initial; display: inline !important; float: none;&quot;&gt;&amp;nbsp;Server();&lt;/span&gt;&lt;br style=&quot;forced-color-adjust: none; padding: 0px; margin: 0px; color: rgb(0, 0, 0); font-family: Helvetica; font-size: 12px; font-style: normal; font-variant-ligatures: normal; font-variant-caps: normal; font-weight: 400; letter-spacing: normal; orphans: 2; text-align: left; text-indent: 0px; text-transform: none; widows: 2; word-spacing: 0px; -webkit-text-stroke-width: 0px; white-space: nowrap; background-color: rgb(251, 251, 251); text-decoration-thickness: initial; text-decoration-style: initial; text-decoration-color: initial;&quot;&gt;" style="text;whiteSpace=wrap;html=1;" parent="WIyWlLk6GJQsqaUBKTNV-1" vertex="1">
          <mxGeometry x="670" y="-3264" width="80" height="22" as="geometry" />
        </mxCell>
        <mxCell id="YF6p2MlqfLs1I0y3U6K9-25" style="edgeStyle=orthogonalEdgeStyle;rounded=0;orthogonalLoop=1;jettySize=auto;html=1;entryX=0.5;entryY=0;entryDx=0;entryDy=0;exitX=1;exitY=0.5;exitDx=0;exitDy=0;" parent="WIyWlLk6GJQsqaUBKTNV-1" source="YF6p2MlqfLs1I0y3U6K9-15" target="YF6p2MlqfLs1I0y3U6K9-22" edge="1">
          <mxGeometry relative="1" as="geometry" />
        </mxCell>
        <mxCell id="YF6p2MlqfLs1I0y3U6K9-15" value="&lt;span style=&quot;color: rgb(0, 0, 0); font-family: Helvetica; font-size: 12px; font-style: normal; font-variant-ligatures: normal; font-variant-caps: normal; font-weight: 400; letter-spacing: normal; orphans: 2; text-align: left; text-indent: 0px; text-transform: none; widows: 2; word-spacing: 0px; -webkit-text-stroke-width: 0px; white-space: nowrap; background-color: rgb(251, 251, 251); text-decoration-thickness: initial; text-decoration-style: initial; text-decoration-color: initial; display: inline !important; float: none;&quot;&gt;int &amp;nbsp; &amp;nbsp; loadData(std::string const &amp;amp;);&lt;/span&gt;&lt;br style=&quot;forced-color-adjust: none; padding: 0px; margin: 0px; color: rgb(0, 0, 0); font-family: Helvetica; font-size: 12px; font-style: normal; font-variant-ligatures: normal; font-variant-caps: normal; font-weight: 400; letter-spacing: normal; orphans: 2; text-align: left; text-indent: 0px; text-transform: none; widows: 2; word-spacing: 0px; -webkit-text-stroke-width: 0px; white-space: nowrap; background-color: rgb(251, 251, 251); text-decoration-thickness: initial; text-decoration-style: initial; text-decoration-color: initial;&quot;&gt;" style="text;whiteSpace=wrap;html=1;" parent="WIyWlLk6GJQsqaUBKTNV-1" vertex="1">
          <mxGeometry x="790" y="-3267" width="220" height="28" as="geometry" />
        </mxCell>
        <mxCell id="YF6p2MlqfLs1I0y3U6K9-19" style="edgeStyle=orthogonalEdgeStyle;rounded=0;orthogonalLoop=1;jettySize=auto;html=1;" parent="WIyWlLk6GJQsqaUBKTNV-1" source="YF6p2MlqfLs1I0y3U6K9-17" edge="1">
          <mxGeometry relative="1" as="geometry">
            <mxPoint x="900" y="-3230" as="targetPoint" />
          </mxGeometry>
        </mxCell>
        <mxCell id="YF6p2MlqfLs1I0y3U6K9-17" value="&lt;div&gt;&lt;span style=&quot;background-color: initial;&quot;&gt;Sever::setHost;&lt;/span&gt;&lt;br&gt;&lt;/div&gt;&lt;div&gt;&lt;span style=&quot;white-space-collapse: collapse;&quot;&gt;Server::setServerName;&lt;/span&gt;&lt;/div&gt;&lt;div&gt;&lt;span style=&quot;white-space-collapse: collapse;&quot;&gt;Server::setErrorPage;&lt;/span&gt;&lt;/div&gt;&lt;div&gt;&lt;span style=&quot;white-space-collapse: collapse;&quot;&gt;Server::setRoot;&lt;/span&gt;&lt;/div&gt;&lt;div&gt;&lt;span style=&quot;white-space-collapse: collapse;&quot;&gt;Server::setIndex;&lt;/span&gt;&lt;/div&gt;&lt;div&gt;&lt;span style=&quot;white-space-collapse: collapse;&quot;&gt;Server::setCGIExtension;&lt;/span&gt;&lt;/div&gt;&lt;div&gt;&lt;span style=&quot;white-space-collapse: collapse;&quot;&gt;Server::setClientMaxBodySize;&lt;/span&gt;&lt;/div&gt;&lt;div&gt;&lt;span style=&quot;white-space-collapse: collapse;&quot;&gt;Server::addLocation;&lt;/span&gt;&lt;/div&gt;" style="text;whiteSpace=wrap;html=1;" parent="WIyWlLk6GJQsqaUBKTNV-1" vertex="1">
          <mxGeometry x="940" y="-3160" width="180" height="146" as="geometry" />
        </mxCell>
        <mxCell id="YF6p2MlqfLs1I0y3U6K9-27" style="edgeStyle=orthogonalEdgeStyle;rounded=0;orthogonalLoop=1;jettySize=auto;html=1;" parent="WIyWlLk6GJQsqaUBKTNV-1" source="YF6p2MlqfLs1I0y3U6K9-21" target="YF6p2MlqfLs1I0y3U6K9-26" edge="1">
          <mxGeometry relative="1" as="geometry" />
        </mxCell>
        <mxCell id="YF6p2MlqfLs1I0y3U6K9-21" value="&lt;span style=&quot;color: rgb(0, 0, 0); font-family: Helvetica; font-size: 12px; font-style: normal; font-variant-ligatures: normal; font-variant-caps: normal; font-weight: 400; letter-spacing: normal; orphans: 2; text-align: left; text-indent: 0px; text-transform: none; widows: 2; word-spacing: 0px; -webkit-text-stroke-width: 0px; white-space: nowrap; background-color: rgb(251, 251, 251); text-decoration-thickness: initial; text-decoration-style: initial; text-decoration-color: initial; display: inline !important; float: none;&quot;&gt;ListeningSocket(int myPort, Server *srv)&lt;/span&gt;" style="text;whiteSpace=wrap;html=1;" parent="WIyWlLk6GJQsqaUBKTNV-1" vertex="1">
          <mxGeometry x="1190" y="-3224" width="220" height="28" as="geometry" />
        </mxCell>
        <mxCell id="YF6p2MlqfLs1I0y3U6K9-23" style="edgeStyle=orthogonalEdgeStyle;rounded=0;orthogonalLoop=1;jettySize=auto;html=1;entryX=0.5;entryY=0;entryDx=0;entryDy=0;" parent="WIyWlLk6GJQsqaUBKTNV-1" source="YF6p2MlqfLs1I0y3U6K9-22" target="YF6p2MlqfLs1I0y3U6K9-17" edge="1">
          <mxGeometry relative="1" as="geometry" />
        </mxCell>
        <mxCell id="YF6p2MlqfLs1I0y3U6K9-24" style="edgeStyle=orthogonalEdgeStyle;rounded=0;orthogonalLoop=1;jettySize=auto;html=1;entryX=0;entryY=0.5;entryDx=0;entryDy=0;" parent="WIyWlLk6GJQsqaUBKTNV-1" source="YF6p2MlqfLs1I0y3U6K9-22" target="YF6p2MlqfLs1I0y3U6K9-21" edge="1">
          <mxGeometry relative="1" as="geometry" />
        </mxCell>
        <mxCell id="YF6p2MlqfLs1I0y3U6K9-22" value="&lt;div style=&quot;forced-color-adjust: none; color: rgb(0, 0, 0); font-family: Helvetica; font-size: 12px; font-style: normal; font-variant-ligatures: normal; font-variant-caps: normal; font-weight: 400; letter-spacing: normal; orphans: 2; text-align: left; text-indent: 0px; text-transform: none; widows: 2; word-spacing: 0px; -webkit-text-stroke-width: 0px; white-space: normal; background-color: rgb(251, 251, 251); text-decoration-thickness: initial; text-decoration-style: initial; text-decoration-color: initial;&quot;&gt;&lt;span style=&quot;forced-color-adjust: none; white-space-collapse: collapse;&quot;&gt;Server::setPort;&lt;/span&gt;&lt;/div&gt;&lt;br class=&quot;Apple-interchange-newline&quot;&gt;" style="text;whiteSpace=wrap;html=1;" parent="WIyWlLk6GJQsqaUBKTNV-1" vertex="1">
          <mxGeometry x="940" y="-3220" width="140" height="20" as="geometry" />
        </mxCell>
        <mxCell id="YF6p2MlqfLs1I0y3U6K9-26" value="&lt;span style=&quot;color: rgb(0, 0, 0); font-family: Helvetica; font-size: 12px; font-style: normal; font-variant-ligatures: normal; font-variant-caps: normal; font-weight: 400; letter-spacing: normal; orphans: 2; text-align: left; text-indent: 0px; text-transform: none; widows: 2; word-spacing: 0px; -webkit-text-stroke-width: 0px; white-space: nowrap; background-color: rgb(251, 251, 251); text-decoration-thickness: initial; text-decoration-style: initial; text-decoration-color: initial; display: inline !important; float: none;&quot;&gt;Client(std::string const &amp;amp;, Server *);&lt;/span&gt;&lt;br style=&quot;forced-color-adjust: none; padding: 0px; margin: 0px; color: rgb(0, 0, 0); font-family: Helvetica; font-size: 12px; font-style: normal; font-variant-ligatures: normal; font-variant-caps: normal; font-weight: 400; letter-spacing: normal; orphans: 2; text-align: left; text-indent: 0px; text-transform: none; widows: 2; word-spacing: 0px; -webkit-text-stroke-width: 0px; white-space: nowrap; background-color: rgb(251, 251, 251); text-decoration-thickness: initial; text-decoration-style: initial; text-decoration-color: initial;&quot;&gt;" style="text;whiteSpace=wrap;html=1;" parent="WIyWlLk6GJQsqaUBKTNV-1" vertex="1">
          <mxGeometry x="1480" y="-3225" width="220" height="30" as="geometry" />
        </mxCell>
        <mxCell id="YF6p2MlqfLs1I0y3U6K9-50" style="edgeStyle=orthogonalEdgeStyle;rounded=0;orthogonalLoop=1;jettySize=auto;html=1;entryX=0;entryY=0.5;entryDx=0;entryDy=0;exitX=1;exitY=0.5;exitDx=0;exitDy=0;" parent="WIyWlLk6GJQsqaUBKTNV-1" source="YF6p2MlqfLs1I0y3U6K9-47" target="YF6p2MlqfLs1I0y3U6K9-49" edge="1">
          <mxGeometry relative="1" as="geometry" />
        </mxCell>
        <mxCell id="YF6p2MlqfLs1I0y3U6K9-28" value="&lt;span style=&quot;color: rgb(0, 0, 0); font-family: Helvetica; font-size: 12px; font-style: normal; font-variant-ligatures: normal; font-variant-caps: normal; font-weight: 400; letter-spacing: normal; orphans: 2; text-align: left; text-indent: 0px; text-transform: none; widows: 2; word-spacing: 0px; -webkit-text-stroke-width: 0px; white-space: nowrap; background-color: rgb(251, 251, 251); text-decoration-thickness: initial; text-decoration-style: initial; text-decoration-color: initial; display: inline !important; float: none;&quot;&gt;bool startListening();&lt;/span&gt;&lt;br style=&quot;forced-color-adjust: none; padding: 0px; margin: 0px; color: rgb(0, 0, 0); font-family: Helvetica; font-size: 12px; font-style: normal; font-variant-ligatures: normal; font-variant-caps: normal; font-weight: 400; letter-spacing: normal; orphans: 2; text-align: left; text-indent: 0px; text-transform: none; widows: 2; word-spacing: 0px; -webkit-text-stroke-width: 0px; white-space: nowrap; background-color: rgb(251, 251, 251); text-decoration-thickness: initial; text-decoration-style: initial; text-decoration-color: initial;&quot;&gt;" style="text;whiteSpace=wrap;html=1;" parent="WIyWlLk6GJQsqaUBKTNV-1" vertex="1">
          <mxGeometry x="1480" y="-3192" width="140" height="20" as="geometry" />
        </mxCell>
        <mxCell id="YF6p2MlqfLs1I0y3U6K9-29" style="edgeStyle=orthogonalEdgeStyle;rounded=0;orthogonalLoop=1;jettySize=auto;html=1;entryX=-0.033;entryY=0.528;entryDx=0;entryDy=0;entryPerimeter=0;" parent="WIyWlLk6GJQsqaUBKTNV-1" source="YF6p2MlqfLs1I0y3U6K9-21" target="YF6p2MlqfLs1I0y3U6K9-28" edge="1">
          <mxGeometry relative="1" as="geometry">
            <Array as="points">
              <mxPoint x="1440" y="-3210" />
              <mxPoint x="1440" y="-3181" />
              <mxPoint x="1475" y="-3181" />
            </Array>
          </mxGeometry>
        </mxCell>
        <mxCell id="YF6p2MlqfLs1I0y3U6K9-35" style="edgeStyle=orthogonalEdgeStyle;rounded=0;orthogonalLoop=1;jettySize=auto;html=1;" parent="WIyWlLk6GJQsqaUBKTNV-1" source="YF6p2MlqfLs1I0y3U6K9-30" target="YF6p2MlqfLs1I0y3U6K9-33" edge="1">
          <mxGeometry relative="1" as="geometry" />
        </mxCell>
        <mxCell id="YF6p2MlqfLs1I0y3U6K9-30" value="&lt;span style=&quot;color: rgb(0, 0, 0); font-family: Helvetica; font-size: 12px; font-style: normal; font-variant-ligatures: normal; font-variant-caps: normal; font-weight: 400; letter-spacing: normal; orphans: 2; text-align: left; text-indent: 0px; text-transform: none; widows: 2; word-spacing: 0px; -webkit-text-stroke-width: 0px; white-space: nowrap; background-color: rgb(251, 251, 251); text-decoration-thickness: initial; text-decoration-style: initial; text-decoration-color: initial; display: inline !important; float: none;&quot;&gt;void WebServer::eventLoop();&lt;/span&gt;" style="text;whiteSpace=wrap;html=1;spacingLeft=4;spacingRight=4;" parent="WIyWlLk6GJQsqaUBKTNV-1" vertex="1">
          <mxGeometry x="280" y="-3172" width="140" height="30" as="geometry" />
        </mxCell>
        <mxCell id="YF6p2MlqfLs1I0y3U6K9-32" value="&lt;span style=&quot;color: rgb(0, 0, 0); font-family: Helvetica; font-size: 12px; font-style: normal; font-variant-ligatures: normal; font-variant-caps: normal; font-weight: 400; letter-spacing: normal; orphans: 2; text-align: left; text-indent: 0px; text-transform: none; widows: 2; word-spacing: 0px; -webkit-text-stroke-width: 0px; white-space: nowrap; background-color: rgb(251, 251, 251); text-decoration-thickness: initial; text-decoration-style: initial; text-decoration-color: initial; display: inline !important; float: none;&quot;&gt;int WebServer::acceptNewEvent(int curfd)&lt;/span&gt;" style="text;whiteSpace=wrap;html=1;spacingLeft=4;spacingRight=4;" parent="WIyWlLk6GJQsqaUBKTNV-1" vertex="1">
          <mxGeometry x="510" y="-3060" width="240" height="30" as="geometry" />
        </mxCell>
        <mxCell id="YF6p2MlqfLs1I0y3U6K9-37" style="edgeStyle=orthogonalEdgeStyle;rounded=0;orthogonalLoop=1;jettySize=auto;html=1;entryX=0;entryY=0.5;entryDx=0;entryDy=0;exitX=1;exitY=0.5;exitDx=0;exitDy=0;" parent="WIyWlLk6GJQsqaUBKTNV-1" source="1x-KyrQFURj-LHtZxxdS-38" target="YF6p2MlqfLs1I0y3U6K9-34" edge="1">
          <mxGeometry relative="1" as="geometry">
            <mxPoint x="640" y="-3110" as="sourcePoint" />
          </mxGeometry>
        </mxCell>
        <mxCell id="YF6p2MlqfLs1I0y3U6K9-38" style="edgeStyle=orthogonalEdgeStyle;rounded=0;orthogonalLoop=1;jettySize=auto;html=1;entryX=0;entryY=0.5;entryDx=0;entryDy=0;" parent="WIyWlLk6GJQsqaUBKTNV-1" source="YF6p2MlqfLs1I0y3U6K9-33" target="YF6p2MlqfLs1I0y3U6K9-32" edge="1">
          <mxGeometry relative="1" as="geometry" />
        </mxCell>
        <mxCell id="YF6p2MlqfLs1I0y3U6K9-40" style="edgeStyle=orthogonalEdgeStyle;rounded=0;orthogonalLoop=1;jettySize=auto;html=1;" parent="WIyWlLk6GJQsqaUBKTNV-1" source="YF6p2MlqfLs1I0y3U6K9-33" target="YF6p2MlqfLs1I0y3U6K9-39" edge="1">
          <mxGeometry relative="1" as="geometry">
            <Array as="points">
              <mxPoint x="470" y="-2985" />
            </Array>
          </mxGeometry>
        </mxCell>
        <mxCell id="YF6p2MlqfLs1I0y3U6K9-42" style="edgeStyle=orthogonalEdgeStyle;rounded=0;orthogonalLoop=1;jettySize=auto;html=1;entryX=0;entryY=0.5;entryDx=0;entryDy=0;" parent="WIyWlLk6GJQsqaUBKTNV-1" source="YF6p2MlqfLs1I0y3U6K9-33" target="YF6p2MlqfLs1I0y3U6K9-41" edge="1">
          <mxGeometry relative="1" as="geometry" />
        </mxCell>
        <mxCell id="1x-KyrQFURj-LHtZxxdS-39" style="edgeStyle=orthogonalEdgeStyle;rounded=0;orthogonalLoop=1;jettySize=auto;html=1;entryX=0;entryY=0.5;entryDx=0;entryDy=0;" parent="WIyWlLk6GJQsqaUBKTNV-1" source="YF6p2MlqfLs1I0y3U6K9-33" target="1x-KyrQFURj-LHtZxxdS-38" edge="1">
          <mxGeometry relative="1" as="geometry" />
        </mxCell>
        <mxCell id="YF6p2MlqfLs1I0y3U6K9-33" value="&lt;span style=&quot;color: rgb(0, 0, 0); font-family: Helvetica; font-size: 12px; font-style: normal; font-variant-ligatures: normal; font-variant-caps: normal; font-weight: 400; letter-spacing: normal; orphans: 2; text-align: left; text-indent: 0px; text-transform: none; widows: 2; word-spacing: 0px; -webkit-text-stroke-width: 0px; white-space: nowrap; background-color: rgb(251, 251, 251); text-decoration-thickness: initial; text-decoration-style: initial; text-decoration-color: initial; display: inline !important; float: none;&quot;&gt;int WebServer::waitEvent(struct kevent *evList)&lt;/span&gt;" style="text;whiteSpace=wrap;html=1;spacingLeft=4;spacingRight=4;" parent="WIyWlLk6GJQsqaUBKTNV-1" vertex="1">
          <mxGeometry x="330" y="-3102" width="280" height="30" as="geometry" />
        </mxCell>
        <mxCell id="YF6p2MlqfLs1I0y3U6K9-45" style="edgeStyle=orthogonalEdgeStyle;rounded=0;orthogonalLoop=1;jettySize=auto;html=1;entryX=0.5;entryY=0;entryDx=0;entryDy=0;exitX=1;exitY=0.5;exitDx=0;exitDy=0;" parent="WIyWlLk6GJQsqaUBKTNV-1" source="YF6p2MlqfLs1I0y3U6K9-34" target="YF6p2MlqfLs1I0y3U6K9-46" edge="1">
          <mxGeometry relative="1" as="geometry">
            <mxPoint x="490" y="-2815" as="targetPoint" />
            <Array as="points">
              <mxPoint x="1000" y="-3015" />
              <mxPoint x="1000" y="-2800" />
              <mxPoint x="930" y="-2800" />
            </Array>
          </mxGeometry>
        </mxCell>
        <mxCell id="YF6p2MlqfLs1I0y3U6K9-34" value="&lt;span style=&quot;color: rgb(0, 0, 0); font-family: Helvetica; font-size: 12px; font-style: normal; font-variant-ligatures: normal; font-variant-caps: normal; font-weight: 400; letter-spacing: normal; orphans: 2; text-align: left; text-indent: 0px; text-transform: none; widows: 2; word-spacing: 0px; -webkit-text-stroke-width: 0px; white-space: nowrap; background-color: rgb(251, 251, 251); text-decoration-thickness: initial; text-decoration-style: initial; text-decoration-color: initial; display: inline !important; float: none;&quot;&gt;void ListeningSocket::loadRequest(char *buff)&lt;/span&gt;" style="text;whiteSpace=wrap;html=1;spacingLeft=4;spacingRight=4;" parent="WIyWlLk6GJQsqaUBKTNV-1" vertex="1">
          <mxGeometry x="720" y="-3030" width="260" height="30" as="geometry" />
        </mxCell>
        <mxCell id="YF6p2MlqfLs1I0y3U6K9-52" style="edgeStyle=orthogonalEdgeStyle;rounded=0;orthogonalLoop=1;jettySize=auto;html=1;entryX=0;entryY=0.5;entryDx=0;entryDy=0;" parent="WIyWlLk6GJQsqaUBKTNV-1" source="YF6p2MlqfLs1I0y3U6K9-39" target="YF6p2MlqfLs1I0y3U6K9-51" edge="1">
          <mxGeometry relative="1" as="geometry">
            <Array as="points">
              <mxPoint x="830" y="-2985" />
              <mxPoint x="830" y="-2825" />
              <mxPoint x="750" y="-2825" />
              <mxPoint x="750" y="-2665" />
            </Array>
          </mxGeometry>
        </mxCell>
        <mxCell id="YF6p2MlqfLs1I0y3U6K9-39" value="&lt;span style=&quot;color: rgb(0, 0, 0); font-family: Helvetica; font-size: 12px; font-style: normal; font-variant-ligatures: normal; font-variant-caps: normal; font-weight: 400; letter-spacing: normal; orphans: 2; text-align: left; text-indent: 0px; text-transform: none; widows: 2; word-spacing: 0px; -webkit-text-stroke-width: 0px; white-space: nowrap; background-color: rgb(251, 251, 251); text-decoration-thickness: initial; text-decoration-style: initial; text-decoration-color: initial; display: inline !important; float: none;&quot;&gt;bool ListeningSocket::sendData(int clientSocketFd)&lt;/span&gt;" style="text;whiteSpace=wrap;html=1;spacingLeft=4;spacingRight=4;" parent="WIyWlLk6GJQsqaUBKTNV-1" vertex="1">
          <mxGeometry x="510" y="-3000" width="280" height="30" as="geometry" />
        </mxCell>
        <mxCell id="YF6p2MlqfLs1I0y3U6K9-43" style="edgeStyle=orthogonalEdgeStyle;rounded=0;orthogonalLoop=1;jettySize=auto;html=1;entryX=0.5;entryY=0;entryDx=0;entryDy=0;" parent="WIyWlLk6GJQsqaUBKTNV-1" source="YF6p2MlqfLs1I0y3U6K9-41" target="YF6p2MlqfLs1I0y3U6K9-33" edge="1">
          <mxGeometry relative="1" as="geometry">
            <Array as="points">
              <mxPoint x="640" y="-2910" />
              <mxPoint x="260" y="-2910" />
              <mxPoint x="260" y="-3120" />
              <mxPoint x="470" y="-3120" />
            </Array>
          </mxGeometry>
        </mxCell>
        <mxCell id="YF6p2MlqfLs1I0y3U6K9-41" value="&lt;span style=&quot;color: rgb(0, 0, 0); font-family: Helvetica; font-size: 12px; font-style: normal; font-variant-ligatures: normal; font-variant-caps: normal; font-weight: 400; letter-spacing: normal; orphans: 2; text-align: left; text-indent: 0px; text-transform: none; widows: 2; word-spacing: 0px; -webkit-text-stroke-width: 0px; white-space: nowrap; background-color: rgb(251, 251, 251); text-decoration-thickness: initial; text-decoration-style: initial; text-decoration-color: initial; display: inline !important; float: none;&quot;&gt;delete acceptedSocket[];&lt;/span&gt;" style="text;whiteSpace=wrap;html=1;spacingLeft=4;spacingRight=4;" parent="WIyWlLk6GJQsqaUBKTNV-1" vertex="1">
          <mxGeometry x="510" y="-2970" width="260" height="30" as="geometry" />
        </mxCell>
        <mxCell id="YF6p2MlqfLs1I0y3U6K9-48" style="edgeStyle=orthogonalEdgeStyle;rounded=0;orthogonalLoop=1;jettySize=auto;html=1;entryX=0;entryY=0.5;entryDx=0;entryDy=0;exitX=1;exitY=0.5;exitDx=0;exitDy=0;" parent="WIyWlLk6GJQsqaUBKTNV-1" source="1x-KyrQFURj-LHtZxxdS-35" target="YF6p2MlqfLs1I0y3U6K9-47" edge="1">
          <mxGeometry relative="1" as="geometry" />
        </mxCell>
        <mxCell id="1x-KyrQFURj-LHtZxxdS-36" style="edgeStyle=orthogonalEdgeStyle;rounded=0;orthogonalLoop=1;jettySize=auto;html=1;entryX=0;entryY=0.5;entryDx=0;entryDy=0;exitX=1;exitY=0.5;exitDx=0;exitDy=0;" parent="WIyWlLk6GJQsqaUBKTNV-1" source="YF6p2MlqfLs1I0y3U6K9-46" target="1x-KyrQFURj-LHtZxxdS-35" edge="1">
          <mxGeometry relative="1" as="geometry" />
        </mxCell>
        <mxCell id="YF6p2MlqfLs1I0y3U6K9-46" value="&lt;span style=&quot;color: rgb(0, 0, 0); font-family: Helvetica; font-size: 12px; font-style: normal; font-variant-ligatures: normal; font-variant-caps: normal; font-weight: 400; letter-spacing: normal; orphans: 2; text-align: left; text-indent: 0px; text-transform: none; widows: 2; word-spacing: 0px; -webkit-text-stroke-width: 0px; white-space: nowrap; background-color: rgb(251, 251, 251); text-decoration-thickness: initial; text-decoration-style: initial; text-decoration-color: initial; display: inline !important; float: none;&quot;&gt;void Client::loadCompleteClient( Receive *receiver)&lt;/span&gt;" style="text;whiteSpace=wrap;html=1;spacingLeft=4;spacingRight=4;" parent="WIyWlLk6GJQsqaUBKTNV-1" vertex="1">
          <mxGeometry x="780" y="-2760" width="300" height="30" as="geometry" />
        </mxCell>
        <mxCell id="YF6p2MlqfLs1I0y3U6K9-47" value="&lt;span style=&quot;color: rgb(0, 0, 0); font-family: Helvetica; font-size: 12px; font-style: normal; font-variant-ligatures: normal; font-variant-caps: normal; font-weight: 400; letter-spacing: normal; orphans: 2; text-align: left; text-indent: 0px; text-transform: none; widows: 2; word-spacing: 0px; -webkit-text-stroke-width: 0px; white-space: nowrap; background-color: rgb(251, 251, 251); text-decoration-thickness: initial; text-decoration-style: initial; text-decoration-color: initial; display: inline !important; float: none;&quot;&gt;void Client::loadDataHeader()&lt;/span&gt;" style="text;whiteSpace=wrap;html=1;spacingLeft=4;spacingRight=4;" parent="WIyWlLk6GJQsqaUBKTNV-1" vertex="1">
          <mxGeometry x="1330" y="-2760" width="180" height="30" as="geometry" />
        </mxCell>
        <mxCell id="YF6p2MlqfLs1I0y3U6K9-49" value="void setVersion(std::string version);&#xa;void setStatus(std::string status);&#xa;void setServer(std::string server);&#xa;void setDate();&#xa;void setLastModified(std::string lastModified);&#xa;void setContentLength(size_t contentLength);&#xa;void setContentType(std::string contentType);" style="text;align=left;verticalAlign=top;spacingLeft=4;spacingRight=4;overflow=hidden;rotatable=0;points=[[0,0.5],[1,0.5]];portConstraint=eastwest;" parent="WIyWlLk6GJQsqaUBKTNV-1" vertex="1">
          <mxGeometry x="1540" y="-2808" width="280" height="126" as="geometry" />
        </mxCell>
        <mxCell id="YF6p2MlqfLs1I0y3U6K9-58" style="edgeStyle=orthogonalEdgeStyle;rounded=0;orthogonalLoop=1;jettySize=auto;html=1;entryX=0;entryY=0.5;entryDx=0;entryDy=0;" parent="WIyWlLk6GJQsqaUBKTNV-1" source="YF6p2MlqfLs1I0y3U6K9-51" target="YF6p2MlqfLs1I0y3U6K9-57" edge="1">
          <mxGeometry relative="1" as="geometry" />
        </mxCell>
        <mxCell id="YF6p2MlqfLs1I0y3U6K9-64" style="edgeStyle=orthogonalEdgeStyle;rounded=0;orthogonalLoop=1;jettySize=auto;html=1;entryX=0;entryY=0.5;entryDx=0;entryDy=0;" parent="WIyWlLk6GJQsqaUBKTNV-1" source="YF6p2MlqfLs1I0y3U6K9-51" target="YF6p2MlqfLs1I0y3U6K9-62" edge="1">
          <mxGeometry relative="1" as="geometry" />
        </mxCell>
        <mxCell id="YF6p2MlqfLs1I0y3U6K9-51" value="&lt;span style=&quot;color: rgb(0, 0, 0); font-family: Helvetica; font-size: 12px; font-style: normal; font-variant-ligatures: normal; font-variant-caps: normal; font-weight: 400; letter-spacing: normal; orphans: 2; text-align: left; text-indent: 0px; text-transform: none; widows: 2; word-spacing: 0px; -webkit-text-stroke-width: 0px; white-space: nowrap; background-color: rgb(251, 251, 251); text-decoration-thickness: initial; text-decoration-style: initial; text-decoration-color: initial; display: inline !important; float: none;&quot;&gt;std::string Client::getAnswerToSend()&lt;/span&gt;" style="text;whiteSpace=wrap;html=1;spacingLeft=4;spacingRight=4;" parent="WIyWlLk6GJQsqaUBKTNV-1" vertex="1">
          <mxGeometry x="810" y="-2680" width="220" height="30" as="geometry" />
        </mxCell>
        <mxCell id="YF6p2MlqfLs1I0y3U6K9-53" style="edgeStyle=orthogonalEdgeStyle;rounded=0;orthogonalLoop=1;jettySize=auto;html=1;exitX=0.5;exitY=1;exitDx=0;exitDy=0;" parent="WIyWlLk6GJQsqaUBKTNV-1" source="YF6p2MlqfLs1I0y3U6K9-5" target="YF6p2MlqfLs1I0y3U6K9-5" edge="1">
          <mxGeometry relative="1" as="geometry" />
        </mxCell>
        <mxCell id="YF6p2MlqfLs1I0y3U6K9-61" style="edgeStyle=orthogonalEdgeStyle;rounded=0;orthogonalLoop=1;jettySize=auto;html=1;entryX=0;entryY=0.5;entryDx=0;entryDy=0;" parent="WIyWlLk6GJQsqaUBKTNV-1" source="YF6p2MlqfLs1I0y3U6K9-57" target="YF6p2MlqfLs1I0y3U6K9-59" edge="1">
          <mxGeometry relative="1" as="geometry" />
        </mxCell>
        <mxCell id="YF6p2MlqfLs1I0y3U6K9-57" value="&lt;div&gt;&lt;span style=&quot;background-color: initial; text-wrap: nowrap;&quot;&gt;std::string Client::getFileContent()&lt;/span&gt;&lt;br&gt;&lt;/div&gt;" style="text;whiteSpace=wrap;html=1;spacingLeft=4;spacingRight=4;" parent="WIyWlLk6GJQsqaUBKTNV-1" vertex="1">
          <mxGeometry x="1090" y="-2680" width="205" height="30" as="geometry" />
        </mxCell>
        <mxCell id="YF6p2MlqfLs1I0y3U6K9-66" style="edgeStyle=orthogonalEdgeStyle;rounded=0;orthogonalLoop=1;jettySize=auto;html=1;" parent="WIyWlLk6GJQsqaUBKTNV-1" source="YF6p2MlqfLs1I0y3U6K9-59" target="YF6p2MlqfLs1I0y3U6K9-65" edge="1">
          <mxGeometry relative="1" as="geometry" />
        </mxCell>
        <mxCell id="YF6p2MlqfLs1I0y3U6K9-59" value="&lt;div&gt;&lt;span style=&quot;text-wrap: nowrap;&quot;&gt;std::string FileContent::getContent()&amp;nbsp;&lt;/span&gt;&lt;br&gt;&lt;/div&gt;" style="text;whiteSpace=wrap;html=1;spacingLeft=4;spacingRight=4;" parent="WIyWlLk6GJQsqaUBKTNV-1" vertex="1">
          <mxGeometry x="1340" y="-2680" width="205" height="30" as="geometry" />
        </mxCell>
        <mxCell id="YF6p2MlqfLs1I0y3U6K9-62" value="&lt;div&gt;&lt;span style=&quot;text-wrap: nowrap;&quot;&gt;std::string Header::generateHeader() const&lt;/span&gt;&lt;br&gt;&lt;/div&gt;" style="text;whiteSpace=wrap;html=1;spacingLeft=4;spacingRight=4;" parent="WIyWlLk6GJQsqaUBKTNV-1" vertex="1">
          <mxGeometry x="1090" y="-2600" width="240" height="30" as="geometry" />
        </mxCell>
        <mxCell id="YF6p2MlqfLs1I0y3U6K9-65" value="&lt;div&gt;&lt;span style=&quot;text-wrap: nowrap;&quot;&gt;std::string CGI::execute()&lt;/span&gt;&lt;br&gt;&lt;/div&gt;" style="text;whiteSpace=wrap;html=1;spacingLeft=4;spacingRight=4;" parent="WIyWlLk6GJQsqaUBKTNV-1" vertex="1">
          <mxGeometry x="1590" y="-2670" width="205" height="30" as="geometry" />
        </mxCell>
        <mxCell id="YF6p2MlqfLs1I0y3U6K9-67" style="edgeStyle=orthogonalEdgeStyle;rounded=0;orthogonalLoop=1;jettySize=auto;html=1;exitX=1;exitY=0.5;exitDx=0;exitDy=0;entryX=0;entryY=0.5;entryDx=0;entryDy=0;" parent="WIyWlLk6GJQsqaUBKTNV-1" source="YF6p2MlqfLs1I0y3U6K9-59" target="YF6p2MlqfLs1I0y3U6K9-68" edge="1">
          <mxGeometry relative="1" as="geometry">
            <mxPoint x="1545" y="-2615" as="sourcePoint" />
          </mxGeometry>
        </mxCell>
        <mxCell id="YF6p2MlqfLs1I0y3U6K9-68" value="&lt;div&gt;&lt;span style=&quot;text-wrap: nowrap;&quot;&gt;read file&lt;/span&gt;&lt;br&gt;&lt;/div&gt;" style="text;whiteSpace=wrap;html=1;spacingLeft=4;spacingRight=4;" parent="WIyWlLk6GJQsqaUBKTNV-1" vertex="1">
          <mxGeometry x="1590" y="-2640" width="205" height="30" as="geometry" />
        </mxCell>
        <mxCell id="1x-KyrQFURj-LHtZxxdS-0" value="Receive" style="swimlane;fontStyle=0;align=center;verticalAlign=top;childLayout=stackLayout;horizontal=1;startSize=26;horizontalStack=0;resizeParent=1;resizeLast=0;collapsible=1;marginBottom=0;rounded=0;shadow=0;strokeWidth=1;fillColor=#f5f5f5;fontColor=#333333;strokeColor=#666666;" parent="WIyWlLk6GJQsqaUBKTNV-1" vertex="1">
          <mxGeometry x="1440" y="-4230" width="290" height="600" as="geometry">
            <mxRectangle x="340" y="380" width="170" height="26" as="alternateBounds" />
          </mxGeometry>
        </mxCell>
        <mxCell id="1x-KyrQFURj-LHtZxxdS-1" value="std::string buffer;" style="text;align=left;verticalAlign=top;spacingLeft=4;spacingRight=4;overflow=hidden;rotatable=0;points=[[0,0.5],[1,0.5]];portConstraint=eastwest;" parent="1x-KyrQFURj-LHtZxxdS-0" vertex="1">
          <mxGeometry y="26" width="290" height="34" as="geometry" />
        </mxCell>
        <mxCell id="1x-KyrQFURj-LHtZxxdS-15" value="std::string request;" style="text;align=left;verticalAlign=top;spacingLeft=4;spacingRight=4;overflow=hidden;rotatable=0;points=[[0,0.5],[1,0.5]];portConstraint=eastwest;" parent="1x-KyrQFURj-LHtZxxdS-0" vertex="1">
          <mxGeometry y="60" width="290" height="20" as="geometry" />
        </mxCell>
        <mxCell id="1x-KyrQFURj-LHtZxxdS-20" value="std::string body;" style="text;align=left;verticalAlign=top;spacingLeft=4;spacingRight=4;overflow=hidden;rotatable=0;points=[[0,0.5],[1,0.5]];portConstraint=eastwest;" parent="1x-KyrQFURj-LHtZxxdS-0" vertex="1">
          <mxGeometry y="80" width="290" height="20" as="geometry" />
        </mxCell>
        <mxCell id="1x-KyrQFURj-LHtZxxdS-23" value="bool isbody;" style="text;align=left;verticalAlign=top;spacingLeft=4;spacingRight=4;overflow=hidden;rotatable=0;points=[[0,0.5],[1,0.5]];portConstraint=eastwest;" parent="1x-KyrQFURj-LHtZxxdS-0" vertex="1">
          <mxGeometry y="100" width="290" height="20" as="geometry" />
        </mxCell>
        <mxCell id="1x-KyrQFURj-LHtZxxdS-22" value="size_t maxSize;" style="text;align=left;verticalAlign=top;spacingLeft=4;spacingRight=4;overflow=hidden;rotatable=0;points=[[0,0.5],[1,0.5]];portConstraint=eastwest;" parent="1x-KyrQFURj-LHtZxxdS-0" vertex="1">
          <mxGeometry y="120" width="290" height="20" as="geometry" />
        </mxCell>
        <mxCell id="1x-KyrQFURj-LHtZxxdS-17" value="size_t sizeSent;" style="text;align=left;verticalAlign=top;spacingLeft=4;spacingRight=4;overflow=hidden;rotatable=0;points=[[0,0.5],[1,0.5]];portConstraint=eastwest;" parent="1x-KyrQFURj-LHtZxxdS-0" vertex="1">
          <mxGeometry y="140" width="290" height="20" as="geometry" />
        </mxCell>
        <mxCell id="1x-KyrQFURj-LHtZxxdS-26" value="size_t sizeSent;" style="text;align=left;verticalAlign=top;spacingLeft=4;spacingRight=4;overflow=hidden;rotatable=0;points=[[0,0.5],[1,0.5]];portConstraint=eastwest;" parent="1x-KyrQFURj-LHtZxxdS-0" vertex="1">
          <mxGeometry y="160" width="290" height="20" as="geometry" />
        </mxCell>
        <mxCell id="1x-KyrQFURj-LHtZxxdS-29" value="std::ofstream file;" style="text;align=left;verticalAlign=top;spacingLeft=4;spacingRight=4;overflow=hidden;rotatable=0;points=[[0,0.5],[1,0.5]];portConstraint=eastwest;" parent="1x-KyrQFURj-LHtZxxdS-0" vertex="1">
          <mxGeometry y="180" width="290" height="20" as="geometry" />
        </mxCell>
        <mxCell id="1x-KyrQFURj-LHtZxxdS-28" value="std::string boundary;" style="text;align=left;verticalAlign=top;spacingLeft=4;spacingRight=4;overflow=hidden;rotatable=0;points=[[0,0.5],[1,0.5]];portConstraint=eastwest;" parent="1x-KyrQFURj-LHtZxxdS-0" vertex="1">
          <mxGeometry y="200" width="290" height="20" as="geometry" />
        </mxCell>
        <mxCell id="1x-KyrQFURj-LHtZxxdS-27" value="bool isform;" style="text;align=left;verticalAlign=top;spacingLeft=4;spacingRight=4;overflow=hidden;rotatable=0;points=[[0,0.5],[1,0.5]];portConstraint=eastwest;" parent="1x-KyrQFURj-LHtZxxdS-0" vertex="1">
          <mxGeometry y="220" width="290" height="20" as="geometry" />
        </mxCell>
        <mxCell id="1x-KyrQFURj-LHtZxxdS-5" value="" style="line;html=1;strokeWidth=1;align=left;verticalAlign=middle;spacingTop=-1;spacingLeft=3;spacingRight=3;rotatable=0;labelPosition=right;points=[];portConstraint=eastwest;" parent="1x-KyrQFURj-LHtZxxdS-0" vertex="1">
          <mxGeometry y="240" width="290" height="8" as="geometry" />
        </mxCell>
        <mxCell id="1x-KyrQFURj-LHtZxxdS-6" value="Constructors" style="text;align=left;verticalAlign=top;spacingLeft=4;spacingRight=4;overflow=hidden;rotatable=0;points=[[0,0.5],[1,0.5]];portConstraint=eastwest;fontStyle=5" parent="1x-KyrQFURj-LHtZxxdS-0" vertex="1">
          <mxGeometry y="248" width="290" height="26" as="geometry" />
        </mxCell>
        <mxCell id="1x-KyrQFURj-LHtZxxdS-7" value=" Receive();&#xa; ~Receive();&#xa; Receive(Receive const &amp;copy);&#xa; Receive &amp;operator=(Receive const &amp;copy);" style="text;align=left;verticalAlign=top;spacingLeft=4;spacingRight=4;overflow=hidden;rotatable=0;points=[[0,0.5],[1,0.5]];portConstraint=eastwest;" parent="1x-KyrQFURj-LHtZxxdS-0" vertex="1">
          <mxGeometry y="274" width="290" height="80" as="geometry" />
        </mxCell>
        <mxCell id="1x-KyrQFURj-LHtZxxdS-8" value="" style="line;html=1;strokeWidth=1;align=left;verticalAlign=middle;spacingTop=-1;spacingLeft=3;spacingRight=3;rotatable=0;labelPosition=right;points=[];portConstraint=eastwest;" parent="1x-KyrQFURj-LHtZxxdS-0" vertex="1">
          <mxGeometry y="354" width="290" height="8" as="geometry" />
        </mxCell>
        <mxCell id="1x-KyrQFURj-LHtZxxdS-9" value="Setters/Getters" style="text;align=left;verticalAlign=top;spacingLeft=4;spacingRight=4;overflow=hidden;rotatable=0;points=[[0,0.5],[1,0.5]];portConstraint=eastwest;fontStyle=5" parent="1x-KyrQFURj-LHtZxxdS-0" vertex="1">
          <mxGeometry y="362" width="290" height="26" as="geometry" />
        </mxCell>
        <mxCell id="1x-KyrQFURj-LHtZxxdS-10" value=" void        setBuffer(std::string buffer);&#xa; void        setRequest(std::string request);&#xa; void        setBody(std::string body);&#xa; void        setmaxSize(size_t size);&#xa; std::string getBuffer();&#xa; std::string getRequest();&#xa; std::string getBody();&#xa; bool        getisform();" style="text;align=left;verticalAlign=top;spacingLeft=4;spacingRight=4;overflow=hidden;rotatable=0;points=[[0,0.5],[1,0.5]];portConstraint=eastwest;" parent="1x-KyrQFURj-LHtZxxdS-0" vertex="1">
          <mxGeometry y="388" width="290" height="126" as="geometry" />
        </mxCell>
        <mxCell id="1x-KyrQFURj-LHtZxxdS-11" value="" style="line;html=1;strokeWidth=1;align=left;verticalAlign=middle;spacingTop=-1;spacingLeft=3;spacingRight=3;rotatable=0;labelPosition=right;points=[];portConstraint=eastwest;" parent="1x-KyrQFURj-LHtZxxdS-0" vertex="1">
          <mxGeometry y="514" width="290" height="8" as="geometry" />
        </mxCell>
        <mxCell id="1x-KyrQFURj-LHtZxxdS-12" value="Diverse" style="text;align=left;verticalAlign=top;spacingLeft=4;spacingRight=4;overflow=hidden;rotatable=0;points=[[0,0.5],[1,0.5]];portConstraint=eastwest;fontStyle=5" parent="1x-KyrQFURj-LHtZxxdS-0" vertex="1">
          <mxGeometry y="522" width="290" height="26" as="geometry" />
        </mxCell>
        <mxCell id="1x-KyrQFURj-LHtZxxdS-13" value="        bool receiveHeader(int fd);&#xa;        bool receiveBody(int fd);&#xa;        bool receive(int fd);" style="text;align=left;verticalAlign=top;spacingLeft=4;spacingRight=4;overflow=hidden;rotatable=0;points=[[0,0.5],[1,0.5]];portConstraint=eastwest;" parent="1x-KyrQFURj-LHtZxxdS-0" vertex="1">
          <mxGeometry y="548" width="290" height="52" as="geometry" />
        </mxCell>
        <mxCell id="1x-KyrQFURj-LHtZxxdS-34" style="edgeStyle=orthogonalEdgeStyle;rounded=0;orthogonalLoop=1;jettySize=auto;html=1;entryX=0.5;entryY=0;entryDx=0;entryDy=0;" parent="WIyWlLk6GJQsqaUBKTNV-1" source="1x-KyrQFURj-LHtZxxdS-33" target="1x-KyrQFURj-LHtZxxdS-0" edge="1">
          <mxGeometry relative="1" as="geometry">
            <Array as="points">
              <mxPoint x="1400" y="-4185" />
              <mxPoint x="1400" y="-4250" />
              <mxPoint x="1585" y="-4250" />
            </Array>
          </mxGeometry>
        </mxCell>
        <mxCell id="1x-KyrQFURj-LHtZxxdS-35" value="&lt;span style=&quot;color: rgb(0, 0, 0); font-family: Helvetica; font-size: 12px; font-style: normal; font-variant-ligatures: normal; font-variant-caps: normal; font-weight: 400; letter-spacing: normal; orphans: 2; text-align: left; text-indent: 0px; text-transform: none; widows: 2; word-spacing: 0px; -webkit-text-stroke-width: 0px; white-space: nowrap; background-color: rgb(251, 251, 251); text-decoration-thickness: initial; text-decoration-style: initial; text-decoration-color: initial; display: inline !important; float: none;&quot;&gt;&amp;nbsp;std::string getRequest();&lt;/span&gt;&lt;br style=&quot;forced-color-adjust: none; padding: 0px; margin: 0px; color: rgb(0, 0, 0); font-family: Helvetica; font-size: 12px; font-style: normal; font-variant-ligatures: normal; font-variant-caps: normal; font-weight: 400; letter-spacing: normal; orphans: 2; text-align: left; text-indent: 0px; text-transform: none; widows: 2; word-spacing: 0px; -webkit-text-stroke-width: 0px; white-space: nowrap; background-color: rgb(251, 251, 251); text-decoration-thickness: initial; text-decoration-style: initial; text-decoration-color: initial;&quot;&gt;" style="text;whiteSpace=wrap;html=1;" parent="WIyWlLk6GJQsqaUBKTNV-1" vertex="1">
          <mxGeometry x="1140" y="-2760" width="160" height="30" as="geometry" />
        </mxCell>
        <mxCell id="1x-KyrQFURj-LHtZxxdS-38" value="&lt;span style=&quot;color: rgb(0, 0, 0); font-family: Helvetica; font-size: 12px; font-style: normal; font-variant-ligatures: normal; font-variant-caps: normal; font-weight: 400; letter-spacing: normal; orphans: 2; text-align: left; text-indent: 0px; text-transform: none; widows: 2; word-spacing: 0px; -webkit-text-stroke-width: 0px; white-space: nowrap; background-color: rgb(251, 251, 251); text-decoration-thickness: initial; text-decoration-style: initial; text-decoration-color: initial; display: inline !important; float: none;&quot;&gt;bool Receive::receive(int fd)&lt;/span&gt;" style="text;whiteSpace=wrap;html=1;spacingLeft=4;spacingRight=4;" parent="WIyWlLk6GJQsqaUBKTNV-1" vertex="1">
          <mxGeometry x="510" y="-3030" width="170" height="30" as="geometry" />
        </mxCell>
        <mxCell id="iq62sW6fNtaLrCdy1GR--27" value="WebServer" style="swimlane;fontStyle=0;align=center;verticalAlign=top;childLayout=stackLayout;horizontal=1;startSize=26;horizontalStack=0;resizeParent=1;resizeLast=0;collapsible=1;marginBottom=0;rounded=0;shadow=0;strokeWidth=1;fillColor=#e1d5e7;strokeColor=#9673a6;fontSize=14;" parent="WIyWlLk6GJQsqaUBKTNV-1" vertex="1">
          <mxGeometry x="2360" y="-4880" width="790" height="436" as="geometry">
            <mxRectangle x="340" y="380" width="170" height="26" as="alternateBounds" />
          </mxGeometry>
        </mxCell>
        <mxCell id="iq62sW6fNtaLrCdy1GR--30" value="" style="line;html=1;strokeWidth=1;align=left;verticalAlign=middle;spacingTop=-1;spacingLeft=3;spacingRight=3;rotatable=0;labelPosition=right;points=[];portConstraint=eastwest;fontSize=14;" parent="iq62sW6fNtaLrCdy1GR--27" vertex="1">
          <mxGeometry y="26" width="790" height="8" as="geometry" />
        </mxCell>
        <mxCell id="iq62sW6fNtaLrCdy1GR--39" value="Server" style="swimlane;whiteSpace=wrap;html=1;fontSize=14;" parent="iq62sW6fNtaLrCdy1GR--27" vertex="1">
          <mxGeometry y="34" width="790" height="66" as="geometry">
            <mxRectangle y="34" width="790" height="30" as="alternateBounds" />
          </mxGeometry>
        </mxCell>
        <mxCell id="iq62sW6fNtaLrCdy1GR--40" value="&lt;span style=&quot;text-align: left; text-wrap: nowrap; text-decoration-line: underline; font-size: 14px;&quot;&gt;Listening Socket&lt;/span&gt;" style="swimlane;whiteSpace=wrap;html=1;startSize=23;fontSize=14;" parent="iq62sW6fNtaLrCdy1GR--39" vertex="1" collapsed="1">
          <mxGeometry x="60" y="23" width="130" height="30" as="geometry">
            <mxRectangle x="60" y="23" width="260" height="57" as="alternateBounds" />
          </mxGeometry>
        </mxCell>
        <mxCell id="iq62sW6fNtaLrCdy1GR--41" value="&lt;span style=&quot;text-align: left; text-wrap: nowrap; text-decoration-line: underline; font-size: 14px;&quot;&gt;CGI&lt;/span&gt;" style="swimlane;whiteSpace=wrap;html=1;fontSize=14;" parent="iq62sW6fNtaLrCdy1GR--39" vertex="1" collapsed="1">
          <mxGeometry y="23" width="60" height="30" as="geometry">
            <mxRectangle y="23" width="260" height="114" as="alternateBounds" />
          </mxGeometry>
        </mxCell>
        <mxCell id="iq62sW6fNtaLrCdy1GR--43" value="&lt;span style=&quot;text-align: left; text-wrap: nowrap; text-decoration-line: underline; font-size: 14px;&quot;&gt;Server Socket&lt;/span&gt;" style="swimlane;whiteSpace=wrap;html=1;fontSize=14;" parent="iq62sW6fNtaLrCdy1GR--27" vertex="1">
          <mxGeometry y="100" width="790" height="57" as="geometry">
            <mxRectangle y="53" width="130" height="30" as="alternateBounds" />
          </mxGeometry>
        </mxCell>
        <mxCell id="iq62sW6fNtaLrCdy1GR--44" value="&lt;span style=&quot;text-align: left; text-wrap: nowrap; text-decoration-line: underline; font-size: 14px;&quot;&gt;CGI&lt;/span&gt;" style="swimlane;whiteSpace=wrap;html=1;fontSize=14;" parent="iq62sW6fNtaLrCdy1GR--43" vertex="1" collapsed="1">
          <mxGeometry y="23" width="60" height="30" as="geometry">
            <mxRectangle y="33" width="260" height="114" as="alternateBounds" />
          </mxGeometry>
        </mxCell>
        <mxCell id="iq62sW6fNtaLrCdy1GR--45" value="&lt;span style=&quot;text-align: left; text-wrap: nowrap; text-decoration-line: underline; font-size: 14px;&quot;&gt;SERVER&lt;/span&gt;" style="swimlane;whiteSpace=wrap;html=1;fontSize=14;" parent="iq62sW6fNtaLrCdy1GR--43" vertex="1" collapsed="1">
          <mxGeometry x="60" y="23" width="90" height="30" as="geometry">
            <mxRectangle y="33" width="260" height="114" as="alternateBounds" />
          </mxGeometry>
        </mxCell>
        <mxCell id="iq62sW6fNtaLrCdy1GR--46" value="&lt;span style=&quot;text-align: left; text-wrap: nowrap; text-decoration-line: underline; font-size: 14px;&quot;&gt;Accepted Socket&lt;/span&gt;" style="swimlane;whiteSpace=wrap;html=1;fontSize=14;" parent="iq62sW6fNtaLrCdy1GR--27" vertex="1">
          <mxGeometry y="157" width="790" height="163" as="geometry">
            <mxRectangle y="53" width="130" height="30" as="alternateBounds" />
          </mxGeometry>
        </mxCell>
        <mxCell id="iq62sW6fNtaLrCdy1GR--47" value="&lt;span style=&quot;text-align: left; text-wrap: nowrap; text-decoration-line: underline; font-size: 14px;&quot;&gt;CGI&lt;/span&gt;" style="swimlane;whiteSpace=wrap;html=1;fontSize=14;" parent="iq62sW6fNtaLrCdy1GR--46" vertex="1" collapsed="1">
          <mxGeometry y="23" width="60" height="30" as="geometry">
            <mxRectangle y="33" width="260" height="114" as="alternateBounds" />
          </mxGeometry>
        </mxCell>
        <mxCell id="iq62sW6fNtaLrCdy1GR--48" value="&lt;span style=&quot;text-align: left; text-wrap: nowrap; text-decoration-line: underline; font-size: 14px;&quot;&gt;SERVER&lt;/span&gt;" style="swimlane;whiteSpace=wrap;html=1;fontSize=14;" parent="iq62sW6fNtaLrCdy1GR--46" vertex="1" collapsed="1">
          <mxGeometry x="60" y="23" width="90" height="30" as="geometry">
            <mxRectangle y="33" width="260" height="114" as="alternateBounds" />
          </mxGeometry>
        </mxCell>
        <mxCell id="iq62sW6fNtaLrCdy1GR--49" value="&lt;span style=&quot;text-align: left; text-wrap: nowrap; text-decoration-line: underline; font-size: 14px;&quot;&gt;Client&lt;/span&gt;" style="swimlane;whiteSpace=wrap;html=1;fontSize=14;" parent="iq62sW6fNtaLrCdy1GR--46" vertex="1">
          <mxGeometry x="150" y="23" width="540" height="140" as="geometry">
            <mxRectangle x="150" y="23" width="90" height="30" as="alternateBounds" />
          </mxGeometry>
        </mxCell>
        <mxCell id="iq62sW6fNtaLrCdy1GR--64" value="&lt;span style=&quot;text-align: left; text-wrap: nowrap; text-decoration-line: underline; font-size: 14px;&quot;&gt;SERVER&lt;/span&gt;" style="swimlane;whiteSpace=wrap;html=1;fontSize=14;" parent="iq62sW6fNtaLrCdy1GR--49" vertex="1" collapsed="1">
          <mxGeometry y="26" width="90" height="30" as="geometry">
            <mxRectangle y="33" width="260" height="114" as="alternateBounds" />
          </mxGeometry>
        </mxCell>
        <mxCell id="iq62sW6fNtaLrCdy1GR--66" value="File content" style="swimlane;whiteSpace=wrap;html=1;startSize=23;fontSize=14;" parent="iq62sW6fNtaLrCdy1GR--49" vertex="1">
          <mxGeometry x="90" y="26" width="260" height="114" as="geometry">
            <mxRectangle x="100" y="26" width="90" height="30" as="alternateBounds" />
          </mxGeometry>
        </mxCell>
        <mxCell id="iq62sW6fNtaLrCdy1GR--71" value="CGI" style="swimlane;whiteSpace=wrap;html=1;startSize=23;fontSize=14;" parent="iq62sW6fNtaLrCdy1GR--66" vertex="1" collapsed="1">
          <mxGeometry y="29" width="90" height="30" as="geometry">
            <mxRectangle y="33" width="260" height="114" as="alternateBounds" />
          </mxGeometry>
        </mxCell>
        <mxCell id="iq62sW6fNtaLrCdy1GR--69" value="Header" style="swimlane;whiteSpace=wrap;html=1;startSize=23;fontSize=14;" parent="iq62sW6fNtaLrCdy1GR--49" vertex="1" collapsed="1">
          <mxGeometry x="350" y="26" width="90" height="30" as="geometry">
            <mxRectangle y="33" width="260" height="114" as="alternateBounds" />
          </mxGeometry>
        </mxCell>
        <mxCell id="iq62sW6fNtaLrCdy1GR--70" value="Receiver" style="swimlane;whiteSpace=wrap;html=1;startSize=23;fontSize=14;" parent="iq62sW6fNtaLrCdy1GR--49" vertex="1" collapsed="1">
          <mxGeometry x="445" y="27" width="90" height="30" as="geometry">
            <mxRectangle y="33" width="260" height="114" as="alternateBounds" />
          </mxGeometry>
        </mxCell>
        <mxCell id="_egz8U-bo5EzHCnUKcfh-0" value="&lt;span style=&quot;text-align: left; text-wrap: nowrap; text-decoration-line: underline; font-size: 14px;&quot;&gt;Accepted Socket&lt;/span&gt;" style="swimlane;whiteSpace=wrap;html=1;fontSize=14;" vertex="1" parent="WIyWlLk6GJQsqaUBKTNV-1">
          <mxGeometry x="3160" y="-4690" width="790" height="163" as="geometry">
            <mxRectangle y="53" width="130" height="30" as="alternateBounds" />
          </mxGeometry>
        </mxCell>
        <mxCell id="_egz8U-bo5EzHCnUKcfh-1" value="&lt;span style=&quot;text-align: left; text-wrap: nowrap; text-decoration-line: underline; font-size: 14px;&quot;&gt;CGI&lt;/span&gt;" style="swimlane;whiteSpace=wrap;html=1;fontSize=14;" vertex="1" collapsed="1" parent="_egz8U-bo5EzHCnUKcfh-0">
          <mxGeometry y="23" width="60" height="30" as="geometry">
            <mxRectangle y="33" width="260" height="114" as="alternateBounds" />
          </mxGeometry>
        </mxCell>
        <mxCell id="_egz8U-bo5EzHCnUKcfh-2" value="&lt;span style=&quot;text-align: left; text-wrap: nowrap; text-decoration-line: underline; font-size: 14px;&quot;&gt;SERVER&lt;/span&gt;" style="swimlane;whiteSpace=wrap;html=1;fontSize=14;" vertex="1" collapsed="1" parent="_egz8U-bo5EzHCnUKcfh-0">
          <mxGeometry x="60" y="23" width="90" height="30" as="geometry">
            <mxRectangle y="33" width="260" height="114" as="alternateBounds" />
          </mxGeometry>
        </mxCell>
        <mxCell id="_egz8U-bo5EzHCnUKcfh-3" value="&lt;span style=&quot;text-align: left; text-wrap: nowrap; text-decoration-line: underline; font-size: 14px;&quot;&gt;Client&lt;/span&gt;" style="swimlane;whiteSpace=wrap;html=1;fontSize=14;" vertex="1" parent="_egz8U-bo5EzHCnUKcfh-0">
          <mxGeometry x="150" y="23" width="540" height="140" as="geometry">
            <mxRectangle x="150" y="23" width="90" height="30" as="alternateBounds" />
          </mxGeometry>
        </mxCell>
        <mxCell id="_egz8U-bo5EzHCnUKcfh-4" value="&lt;span style=&quot;text-align: left; text-wrap: nowrap; text-decoration-line: underline; font-size: 14px;&quot;&gt;SERVER&lt;/span&gt;" style="swimlane;whiteSpace=wrap;html=1;fontSize=14;" vertex="1" collapsed="1" parent="_egz8U-bo5EzHCnUKcfh-3">
          <mxGeometry y="26" width="90" height="30" as="geometry">
            <mxRectangle y="33" width="260" height="114" as="alternateBounds" />
          </mxGeometry>
        </mxCell>
        <mxCell id="_egz8U-bo5EzHCnUKcfh-5" value="File content" style="swimlane;whiteSpace=wrap;html=1;startSize=23;fontSize=14;" vertex="1" parent="_egz8U-bo5EzHCnUKcfh-3">
          <mxGeometry x="90" y="26" width="260" height="114" as="geometry">
            <mxRectangle x="100" y="26" width="90" height="30" as="alternateBounds" />
          </mxGeometry>
        </mxCell>
        <mxCell id="_egz8U-bo5EzHCnUKcfh-6" value="CGI" style="swimlane;whiteSpace=wrap;html=1;startSize=23;fontSize=14;" vertex="1" collapsed="1" parent="_egz8U-bo5EzHCnUKcfh-5">
          <mxGeometry y="29" width="90" height="30" as="geometry">
            <mxRectangle y="33" width="260" height="114" as="alternateBounds" />
          </mxGeometry>
        </mxCell>
        <mxCell id="_egz8U-bo5EzHCnUKcfh-7" value="Header" style="swimlane;whiteSpace=wrap;html=1;startSize=23;fontSize=14;" vertex="1" collapsed="1" parent="_egz8U-bo5EzHCnUKcfh-3">
          <mxGeometry x="350" y="26" width="90" height="30" as="geometry">
            <mxRectangle y="33" width="260" height="114" as="alternateBounds" />
          </mxGeometry>
        </mxCell>
        <mxCell id="_egz8U-bo5EzHCnUKcfh-8" value="Receiver" style="swimlane;whiteSpace=wrap;html=1;startSize=23;fontSize=14;" vertex="1" collapsed="1" parent="_egz8U-bo5EzHCnUKcfh-3">
          <mxGeometry x="445" y="27" width="90" height="30" as="geometry">
            <mxRectangle y="33" width="260" height="114" as="alternateBounds" />
          </mxGeometry>
        </mxCell>
      </root>
    </mxGraphModel>
  </diagram>
</mxfile>
